<svg version="1.1" viewBox="0.0 0.0 448.1469816272966 452.76640419947506" fill="none" stroke="none" stroke-linecap="square" stroke-miterlimit="10" xmlns:xlink="http://www.w3.org/1999/xlink" xmlns="http://www.w3.org/2000/svg"><clipPath id="p.0"><path d="m0 0l448.14697 0l0 452.76642l-448.14697 0l0 -452.76642z" clip-rule="nonzero"/></clipPath><g clip-path="url(#p.0)"><path fill="#000000" fill-opacity="0.0" d="m0 0l448.14697 0l0 452.76642l-448.14697 0z" fill-rule="evenodd"/><path fill="#000000" fill-opacity="0.0" d="m48.897636 225.81627l0 0c0 -96.18451 77.839 -174.15747 173.85828 -174.15747l0 0c46.110092 0 90.33162 18.348682 122.936356 51.00954c32.604767 32.660873 50.921906 76.958496 50.921906 123.147934l0 0c0 96.184525 -77.83899 174.15749 -173.85826 174.15749l0 0c-96.01927 0 -173.85828 -77.97296 -173.85828 -174.15749z" fill-rule="evenodd"/><path stroke="#007e6f" stroke-width="4.0" stroke-linejoin="round" stroke-linecap="butt" stroke-dasharray="16.0,12.0" d="m48.897636 225.81627l0 0c0 -96.18451 77.839 -174.15747 173.85828 -174.15747l0 0c46.110092 0 90.33162 18.348682 122.936356 51.00954c32.604767 32.660873 50.921906 76.958496 50.921906 123.147934l0 0c0 96.184525 -77.83899 174.15749 -173.85826 174.15749l0 0c-96.01927 0 -173.85828 -77.97296 -173.85828 -174.15749z" fill-rule="evenodd"/><g filter="url(#shadowFilter-p.1)"><use xlink:href="#p.1" transform="matrix(1.0 0.0 0.0 1.0 0.0 5.333333333333333)"/></g><defs><filter id="shadowFilter-p.1" filterUnits="userSpaceOnUse"><feGaussianBlur in="SourceAlpha" stdDeviation="8.0" result="blur"/><feComponentTransfer in="blur" color-interpolation-filters="sRGB"><feFuncR type="linear" slope="0" intercept="0.0"/><feFuncG type="linear" slope="0" intercept="0.0"/><feFuncB type="linear" slope="0" intercept="0.0"/><feFuncA type="linear" slope="0.549" intercept="0"/></feComponentTransfer></filter></defs><g id="p.1"><path fill="#1b786f" d="m124.532906 225.81702l0 0c0 -52.64534 42.677483 -95.32283 95.32284 -95.32283l0 0c25.281189 0 49.526917 10.042908 67.40341 27.919403c17.876495 17.87651 27.919434 42.12224 27.919434 67.40343l0 0c0 52.645355 -42.67749 95.322845 -95.322845 95.322845l0 0c-52.645355 0 -95.32284 -42.67749 -95.32284 -95.322845z" fill-rule="evenodd"/></g><path fill="#000000" fill-opacity="0.0" d="m100.64567 193.05118l244.22049 0l0 80.409454l-244.22049 0z" fill-rule="evenodd"/><path fill="#ffffff" d="m160.0071 232.60591l-7.5 0l0 7.75l-3.90625 0l0 -18.953125l12.34375 0l0 3.171875l-8.4375 0l0 4.890625l7.5 0l0 3.140625zm10.530746 -2.8125q-0.765625 -0.09375 -1.359375 -0.09375q-2.125 0 -2.796875 1.4375l0 9.21875l-3.765625 0l0 -14.078125l3.5625 0l0.109375 1.671875q1.125 -1.9375 3.125 -1.9375q0.625 0 1.171875 0.171875l-0.046875 3.609375zm8.037872 10.828125q-3.09375 0 -5.046875 -1.90625q-1.9375 -1.90625 -1.9375 -5.0625l0 -0.359375q0 -2.125 0.8125 -3.796875q0.828125 -1.671875 2.328125 -2.578125q1.5 -0.90625 3.4375 -0.90625q2.890625 0 4.546875 1.828125q1.65625 1.8125 1.65625 5.15625l0 1.546875l-8.96875 0q0.1875 1.375 1.09375 2.21875q0.921875 0.828125 2.328125 0.828125q2.171875 0 3.40625 -1.578125l1.84375 2.0625q-0.84375 1.203125 -2.296875 1.875q-1.4375 0.671875 -3.203125 0.671875zm-0.421875 -11.5625q-1.125 0 -1.828125 0.765625q-0.6875 0.75 -0.875 2.15625l5.21875 0l0 -0.3125q-0.015625 -1.25 -0.671875 -1.921875q-0.65625 -0.6875 -1.84375 -0.6875zm14.830307 11.5625q-3.09375 0 -5.046875 -1.90625q-1.9375 -1.90625 -1.9375 -5.0625l0 -0.359375q0 -2.125 0.8125 -3.796875q0.828125 -1.671875 2.328125 -2.578125q1.5 -0.90625 3.4375 -0.90625q2.890625 0 4.546875 1.828125q1.65625 1.8125 1.65625 5.15625l0 1.546875l-8.96875 0q0.1875 1.375 1.09375 2.21875q0.921875 0.828125 2.328125 0.828125q2.171875 0 3.40625 -1.578125l1.84375 2.0625q-0.84375 1.203125 -2.296875 1.875q-1.4375 0.671875 -3.203125 0.671875zm-0.421875 -11.5625q-1.125 0 -1.828125 0.765625q-0.6875 0.75 -0.875 2.15625l5.21875 0l0 -0.3125q-0.015625 -1.25 -0.671875 -1.921875q-0.65625 -0.6875 -1.84375 -0.6875zm7.767807 4.15625q0 -3.296875 1.46875 -5.25q1.484375 -1.953125 4.046875 -1.953125q2.0625 0 3.40625 1.53125l0 -7.1875l3.765625 0l0 20.0l-3.390625 0l-0.1875 -1.5q-1.40625 1.765625 -3.609375 1.765625q-2.5 0 -4.0 -1.953125q-1.5 -1.96875 -1.5 -5.453125zm3.765625 0.265625q0 1.984375 0.6875 3.046875q0.6875 1.046875 2.0 1.046875q1.75 0 2.46875 -1.46875l0 -5.5625q-0.703125 -1.46875 -2.4375 -1.46875q-2.71875 0 -2.71875 4.40625zm18.317047 7.140625q-3.09375 0 -5.046875 -1.90625q-1.9375 -1.90625 -1.9375 -5.0625l0 -0.359375q0 -2.125 0.8125 -3.796875q0.828125 -1.671875 2.328125 -2.578125q1.5 -0.90625 3.4375 -0.90625q2.890625 0 4.546875 1.828125q1.65625 1.8125 1.65625 5.15625l0 1.546875l-8.96875 0q0.1875 1.375 1.09375 2.21875q0.921875 0.828125 2.328125 0.828125q2.171875 0 3.40625 -1.578125l1.84375 2.0625q-0.84375 1.203125 -2.296875 1.875q-1.4375 0.671875 -3.203125 0.671875zm-0.421875 -11.5625q-1.125 0 -1.828125 0.765625q-0.6875 0.75 -0.875 2.15625l5.21875 0l0 -0.3125q-0.015625 -1.25 -0.671875 -1.921875q-0.65625 -0.6875 -1.84375 -0.6875zm16.267807 0.734375q-0.765625 -0.09375 -1.359375 -0.09375q-2.125 0 -2.796875 1.4375l0 9.21875l-3.765625 0l0 -14.078125l3.5625 0l0.109375 1.671875q1.125 -1.9375 3.125 -1.9375q0.625 0 1.171875 0.171875l-0.046875 3.609375zm9.582138 10.5625q-0.265625 -0.5 -0.375 -1.265625q-1.375 1.53125 -3.5625 1.53125q-2.0625 0 -3.421875 -1.203125q-1.359375 -1.203125 -1.359375 -3.015625q0 -2.25 1.65625 -3.4375q1.65625 -1.203125 4.796875 -1.21875l1.734375 0l0 -0.796875q0 -0.984375 -0.515625 -1.5625q-0.5 -0.59375 -1.578125 -0.59375q-0.9375 0 -1.484375 0.46875q-0.546875 0.453125 -0.546875 1.234375l-3.75 0q0 -1.21875 0.75 -2.25q0.75 -1.046875 2.125 -1.640625q1.390625 -0.59375 3.109375 -0.59375q2.59375 0 4.125 1.3125q1.53125 1.296875 1.53125 3.671875l0 6.109375q0.015625 2.0 0.5625 3.03125l0 0.21875l-3.796875 0zm-3.109375 -2.609375q0.828125 0 1.53125 -0.375q0.703125 -0.375 1.046875 -1.0l0 -2.421875l-1.40625 0q-2.828125 0 -3.015625 1.953125l-0.015625 0.21875q0 0.703125 0.5 1.171875q0.5 0.453125 1.359375 0.453125zm13.744415 -14.9375l0 3.46875l2.40625 0l0 2.75l-2.40625 0l0 7.03125q0 0.78125 0.296875 1.125q0.296875 0.328125 1.140625 0.328125q0.625 0 1.109375 -0.078125l0 2.84375q-1.109375 0.34375 -2.28125 0.34375q-3.953125 0 -4.03125 -4.0l0 -7.59375l-2.0625 0l0 -2.75l2.0625 0l0 -3.46875l3.765625 0zm8.475647 17.546875l-3.78125 0l0 -14.078125l3.78125 0l0 14.078125zm-4.0 -17.734375q0 -0.84375 0.5625 -1.390625q0.5625 -0.546875 1.546875 -0.546875q0.953125 0 1.53125 0.546875q0.578125 0.546875 0.578125 1.390625q0 0.859375 -0.578125 1.40625q-0.578125 0.546875 -1.53125 0.546875q-0.953125 0 -1.53125 -0.546875q-0.578125 -0.546875 -0.578125 -1.40625zm6.5050354 10.5625q0 -2.09375 0.796875 -3.734375q0.8125 -1.640625 2.328125 -2.53125q1.515625 -0.90625 3.53125 -0.90625q2.84375 0 4.640625 1.75q1.8125 1.734375 2.015625 4.734375l0.03125 0.96875q0 3.234375 -1.8125 5.203125q-1.8125 1.953125 -4.859375 1.953125q-3.046875 0 -4.859375 -1.953125q-1.8125 -1.953125 -1.8125 -5.3125l0 -0.171875zm3.765625 0.28125q0 2.0 0.75 3.0625q0.75 1.0625 2.15625 1.0625q1.375 0 2.140625 -1.046875q0.765625 -1.0625 0.765625 -3.359375q0 -1.96875 -0.765625 -3.046875q-0.765625 -1.078125 -2.15625 -1.078125q-1.390625 0 -2.140625 1.078125q-0.75 1.0625 -0.75 3.328125zm15.353485 -7.1875l0.125 1.625q1.5 -1.890625 4.046875 -1.890625q2.234375 0 3.328125 1.3125q1.09375 1.3125 1.109375 3.9375l0 9.09375l-3.75 0l0 -9.0q0 -1.203125 -0.53125 -1.734375q-0.515625 -0.546875 -1.71875 -0.546875q-1.59375 0 -2.390625 1.34375l0 9.9375l-3.765625 0l0 -14.078125l3.546875 0z" fill-rule="nonzero"/><path fill="#00362f" d="m162.68356 56.094112l0 0c0 -30.98013 25.114365 -56.094486 56.094498 -56.094486l0 0c14.877182 0 29.145035 5.909938 39.66478 16.429695c10.519775 10.519756 16.429718 24.78761 16.429718 39.66479l0 0c0 30.98013 -25.11438 56.094486 -56.094498 56.094486l0 0c-30.980133 0 -56.094498 -25.114357 -56.094498 -56.094486z" fill-rule="evenodd"/><path fill="#000000" fill-opacity="0.0" d="m152.91943 17.653543l131.71652 0l0 76.88189l-131.71652 0z" fill-rule="evenodd"/><path fill="#ffffff" d="m174.48705 50.174484l0 -10.421875l3.203125 0q1.375 0 2.453125 0.625q1.078125 0.609375 1.6875 1.75q0.609375 1.140625 0.609375 2.59375l0 0.484375q0 1.453125 -0.59375 2.59375q-0.59375 1.125 -1.6875 1.75q-1.078125 0.625 -2.453125 0.625l-3.21875 0zm2.140625 -8.6875l0 6.96875l1.03125 0q1.265625 0 1.921875 -0.828125q0.671875 -0.828125 0.6875 -2.359375l0 -0.546875q0 -1.59375 -0.65625 -2.40625q-0.65625 -0.828125 -1.921875 -0.828125l-1.0625 0zm10.806381 8.828125q-1.703125 0 -2.78125 -1.046875q-1.0625 -1.046875 -1.0625 -2.78125l0 -0.203125q0 -1.15625 0.453125 -2.078125q0.453125 -0.921875 1.265625 -1.421875q0.828125 -0.5 1.890625 -0.5q1.59375 0 2.5 1.015625q0.921875 1.0 0.921875 2.828125l0 0.84375l-4.9375 0q0.109375 0.765625 0.609375 1.21875q0.5 0.453125 1.28125 0.453125q1.1875 0 1.859375 -0.859375l1.015625 1.140625q-0.46875 0.65625 -1.265625 1.03125q-0.78125 0.359375 -1.75 0.359375zm-0.234375 -6.359375q-0.625 0 -1.015625 0.421875q-0.375 0.421875 -0.46875 1.1875l2.875 0l0 -0.15625q-0.015625 -0.6875 -0.375 -1.0625q-0.359375 -0.390625 -1.015625 -0.390625zm7.812729 4.6875q0.578125 0 0.921875 -0.3125q0.359375 -0.3125 0.375 -0.828125l1.9375 0q0 0.78125 -0.421875 1.4375q-0.421875 0.65625 -1.15625 1.015625q-0.734375 0.359375 -1.625 0.359375q-1.65625 0 -2.625 -1.046875q-0.953125 -1.0625 -0.953125 -2.921875l0 -0.140625q0 -1.78125 0.953125 -2.84375q0.953125 -1.078125 2.609375 -1.078125q1.453125 0 2.328125 0.828125q0.890625 0.828125 0.890625 2.203125l-1.9375 0q-0.015625 -0.59375 -0.375 -0.96875q-0.34375 -0.390625 -0.9375 -0.390625q-0.71875 0 -1.09375 0.53125q-0.359375 0.53125 -0.359375 1.703125l0 0.21875q0 1.203125 0.359375 1.71875q0.359375 0.515625 1.109375 0.515625zm7.9867554 1.671875q-1.703125 0 -2.78125 -1.046875q-1.0625 -1.046875 -1.0625 -2.78125l0 -0.203125q0 -1.15625 0.453125 -2.078125q0.453125 -0.921875 1.265625 -1.421875q0.828125 -0.5 1.890625 -0.5q1.59375 0 2.5 1.015625q0.921875 1.0 0.921875 2.828125l0 0.84375l-4.9375 0q0.109375 0.765625 0.609375 1.21875q0.5 0.453125 1.28125 0.453125q1.1875 0 1.859375 -0.859375l1.015625 1.140625q-0.46875 0.65625 -1.265625 1.03125q-0.78125 0.359375 -1.75 0.359375zm-0.234375 -6.359375q-0.625 0 -1.015625 0.421875q-0.375 0.421875 -0.46875 1.1875l2.875 0l0 -0.15625q-0.015625 -0.6875 -0.375 -1.0625q-0.359375 -0.390625 -1.015625 -0.390625zm6.500229 -1.53125l0.0625 0.90625q0.828125 -1.046875 2.21875 -1.046875q1.234375 0 1.828125 0.734375q0.609375 0.71875 0.625 2.15625l0 5.0l-2.0625 0l0 -4.953125q0 -0.65625 -0.296875 -0.953125q-0.28125 -0.296875 -0.953125 -0.296875q-0.875 0 -1.3125 0.75l0 5.453125l-2.0625 0l0 -7.75l1.953125 0zm8.770859 -1.890625l0 1.890625l1.328125 0l0 1.53125l-1.328125 0l0 3.859375q0 0.421875 0.15625 0.609375q0.171875 0.1875 0.640625 0.1875q0.34375 0 0.609375 -0.046875l0 1.5625q-0.609375 0.1875 -1.25 0.1875q-2.171875 0 -2.21875 -2.1875l0 -4.171875l-1.125 0l0 -1.53125l1.125 0l0 -1.890625l2.0625 0zm6.8272095 3.84375q-0.421875 -0.0625 -0.734375 -0.0625q-1.171875 0 -1.546875 0.796875l0 5.0625l-2.0625 0l0 -7.75l1.953125 0l0.0625 0.9375q0.609375 -1.078125 1.71875 -1.078125q0.34375 0 0.640625 0.09375l-0.03125 2.0zm5.271591 5.796875q-0.140625 -0.28125 -0.203125 -0.6875q-0.75 0.828125 -1.953125 0.828125q-1.140625 0 -1.890625 -0.65625q-0.75 -0.65625 -0.75 -1.65625q0 -1.234375 0.90625 -1.890625q0.921875 -0.65625 2.640625 -0.671875l0.953125 0l0 -0.4375q0 -0.53125 -0.28125 -0.859375q-0.265625 -0.328125 -0.859375 -0.328125q-0.515625 0 -0.8125 0.25q-0.296875 0.25 -0.296875 0.6875l-2.078125 0q0 -0.671875 0.40625 -1.234375q0.421875 -0.578125 1.171875 -0.90625q0.765625 -0.328125 1.71875 -0.328125q1.421875 0 2.265625 0.71875q0.84375 0.71875 0.84375 2.03125l0 3.34375q0.015625 1.109375 0.3125 1.671875l0 0.125l-2.09375 0zm-1.703125 -1.4375q0.453125 0 0.828125 -0.203125q0.390625 -0.203125 0.578125 -0.546875l0 -1.328125l-0.765625 0q-1.5625 0 -1.65625 1.0625l0 0.125q0 0.390625 0.265625 0.640625q0.265625 0.25 0.75 0.25zm7.2639465 1.4375l-2.078125 0l0 -11.0l2.078125 0l0 11.0zm3.88591 0l-2.078125 0l0 -7.75l2.078125 0l0 7.75zm-2.203125 -9.75q0 -0.46875 0.3125 -0.765625q0.3125 -0.296875 0.84375 -0.296875q0.53125 0 0.84375 0.296875q0.3125 0.296875 0.3125 0.765625q0 0.46875 -0.3125 0.78125q-0.3125 0.296875 -0.84375 0.296875q-0.515625 0 -0.84375 -0.296875q-0.3125 -0.3125 -0.3125 -0.78125zm6.276535 8.078125l3.78125 0l0 1.671875l-6.421875 0l0 -1.265625l3.640625 -4.796875l-3.53125 0l0 -1.6875l6.203125 0l0 1.234375l-3.671875 4.84375zm8.529861 1.8125q-1.703125 0 -2.78125 -1.046875q-1.0625 -1.046875 -1.0625 -2.78125l0 -0.203125q0 -1.15625 0.453125 -2.078125q0.453125 -0.921875 1.265625 -1.421875q0.828125 -0.5 1.890625 -0.5q1.59375 0 2.5 1.015625q0.921875 1.0 0.921875 2.828125l0 0.84375l-4.9375 0q0.109375 0.765625 0.609375 1.21875q0.5 0.453125 1.28125 0.453125q1.1875 0 1.859375 -0.859375l1.015625 1.140625q-0.46875 0.65625 -1.265625 1.03125q-0.78125 0.359375 -1.75 0.359375zm-0.234375 -6.359375q-0.625 0 -1.015625 0.421875q-0.375 0.421875 -0.46875 1.1875l2.875 0l0 -0.15625q-0.015625 -0.6875 -0.375 -1.0625q-0.359375 -0.390625 -1.015625 -0.390625zm4.265854 2.296875q0 -1.8125 0.8125 -2.890625q0.8125 -1.078125 2.21875 -1.078125q1.140625 0 1.875 0.84375l0 -3.953125l2.078125 0l0 11.0l-1.875 0l-0.09375 -0.828125q-0.78125 0.96875 -1.984375 0.96875q-1.375 0 -2.203125 -1.078125q-0.828125 -1.078125 -0.828125 -2.984375zm2.078125 0.140625q0 1.09375 0.375 1.671875q0.375 0.578125 1.09375 0.578125q0.96875 0 1.359375 -0.8125l0 -3.046875q-0.390625 -0.8125 -1.34375 -0.8125q-1.484375 0 -1.484375 2.421875z" fill-rule="nonzero"/><path fill="#ffffff" d="m203.73799 66.705734q-0.125 1.671875 -1.25 2.640625q-1.109375 0.96875 -2.9375 0.96875q-2.015625 0 -3.171875 -1.34375q-1.140625 -1.359375 -1.140625 -3.703125l0 -0.640625q0 -1.5 0.53125 -2.640625q0.53125 -1.15625 1.515625 -1.765625q0.984375 -0.609375 2.28125 -0.609375q1.8125 0 2.90625 0.96875q1.109375 0.96875 1.28125 2.703125l-2.140625 0q-0.078125 -1.0 -0.5625 -1.453125q-0.484375 -0.453125 -1.484375 -0.453125q-1.0625 0 -1.59375 0.765625q-0.53125 0.765625 -0.546875 2.390625l0 0.78125q0 1.6875 0.5 2.46875q0.515625 0.78125 1.625 0.78125q0.984375 0 1.46875 -0.453125q0.5 -0.453125 0.578125 -1.40625l2.140625 0zm0.9489136 -0.46875q0 -1.15625 0.4375 -2.0625q0.453125 -0.90625 1.28125 -1.390625q0.84375 -0.5 1.9375 -0.5q1.578125 0 2.5625 0.96875q0.984375 0.953125 1.109375 2.59375l0.015625 0.53125q0 1.78125 -1.0 2.859375q-1.0 1.078125 -2.671875 1.078125q-1.671875 0 -2.671875 -1.0625q-1.0 -1.078125 -1.0 -2.921875l0 -0.09375zm2.078125 0.140625q0 1.109375 0.40625 1.6875q0.421875 0.578125 1.1875 0.578125q0.75 0 1.171875 -0.5625q0.421875 -0.578125 0.421875 -1.84375q0 -1.09375 -0.421875 -1.6875q-0.421875 -0.59375 -1.1875 -0.59375q-0.75 0 -1.171875 0.59375q-0.40625 0.59375 -0.40625 1.828125zm8.443329 -3.953125l0.0625 0.90625q0.828125 -1.046875 2.21875 -1.046875q1.234375 0 1.828125 0.734375q0.609375 0.71875 0.625 2.15625l0 5.0l-2.0625 0l0 -4.953125q0 -0.65625 -0.296875 -0.953125q-0.28125 -0.296875 -0.953125 -0.296875q-0.875 0 -1.3125 0.75l0 5.453125l-2.0625 0l0 -7.75l1.953125 0zm8.770859 -1.890625l0 1.890625l1.328125 0l0 1.53125l-1.328125 0l0 3.859375q0 0.421875 0.15625 0.609375q0.171875 0.1875 0.640625 0.1875q0.34375 0 0.609375 -0.046875l0 1.5625q-0.609375 0.1875 -1.25 0.1875q-2.171875 0 -2.21875 -2.1875l0 -4.171875l-1.125 0l0 -1.53125l1.125 0l0 -1.890625l2.0625 0zm6.8272095 3.84375q-0.421875 -0.0625 -0.734375 -0.0625q-1.171875 0 -1.546875 0.796875l0 5.0625l-2.0625 0l0 -7.75l1.953125 0l0.0625 0.9375q0.609375 -1.078125 1.71875 -1.078125q0.34375 0 0.640625 0.09375l-0.03125 2.0zm0.41612244 1.859375q0 -1.15625 0.4375 -2.0625q0.453125 -0.90625 1.28125 -1.390625q0.84375 -0.5 1.9375 -0.5q1.578125 0 2.5625 0.96875q0.984375 0.953125 1.109375 2.59375l0.015625 0.53125q0 1.78125 -1.0 2.859375q-1.0 1.078125 -2.671875 1.078125q-1.671875 0 -2.671875 -1.0625q-1.0 -1.078125 -1.0 -2.921875l0 -0.09375zm2.078125 0.140625q0 1.109375 0.40625 1.6875q0.421875 0.578125 1.1875 0.578125q0.75 0 1.171875 -0.5625q0.421875 -0.578125 0.421875 -1.84375q0 -1.09375 -0.421875 -1.6875q-0.421875 -0.59375 -1.1875 -0.59375q-0.75 0 -1.171875 0.59375q-0.40625 0.59375 -0.40625 1.828125zm8.724579 3.796875l-2.078125 0l0 -11.0l2.078125 0l0 11.0z" fill-rule="nonzero"/><path fill="#155b55" d="m333.15338 141.80672l0 0c0 -30.980133 25.11435 -56.09449 56.094482 -56.09449l0 0c14.877197 0 29.14505 5.909935 39.664795 16.429695c10.519775 10.5197525 16.429688 24.787605 16.429688 39.664795l0 0c0 30.980133 -25.11435 56.094482 -56.094482 56.094482l0 0c-30.980133 0 -56.094482 -25.11435 -56.094482 -56.094482z" fill-rule="evenodd"/><path fill="#000000" fill-opacity="0.0" d="m323.38925 108.67585l131.71652 0l0 76.88189l-131.71652 0z" fill-rule="evenodd"/><path fill="#ffffff" d="m382.83484 120.774925l0 6.859375q0 1.7187424 -1.078125 2.7187424q-1.0625 0.984375 -2.90625 0.984375q-1.828125 0 -2.90625 -0.96875q-1.0625 -0.96875 -1.09375 -2.6562424l0 -6.9375l2.15625 0l0 6.875q0 1.0312424 0.484375 1.4999924q0.484375 0.46875 1.359375 0.46875q1.8125 0 1.828125 -1.9062424l0 -6.9375l2.15625 0zm5.8186646 8.281242q0 -0.375 -0.375 -0.59375q-0.375 -0.21875 -1.203125 -0.390625q-2.765625 -0.5781174 -2.765625 -2.3437424q0 -1.03125 0.859375 -1.71875q0.859375 -0.703125 2.234375 -0.703125q1.46875 0 2.359375 0.703125q0.890625 0.6875 0.890625 1.796875l-2.078125 0q0 -0.4375 -0.28125 -0.71875q-0.28125 -0.296875 -0.890625 -0.296875q-0.53125 0 -0.8125 0.234375q-0.28125 0.234375 -0.28125 0.59375q0 0.34375 0.3125 0.5625q0.328125 0.203125 1.09375 0.359375q0.78125 0.15625 1.3125 0.34375q1.640625 0.609375 1.640625 2.0937424q0 1.046875 -0.90625 1.703125q-0.90625 0.65625 -2.34375 0.65625q-0.984375 0 -1.734375 -0.34375q-0.75 -0.34375 -1.1875 -0.953125q-0.421875 -0.609375 -0.421875 -1.3125l1.953125 0q0.03125 0.5625 0.40625 0.859375q0.390625 0.28125 1.015625 0.28125q0.59375 0 0.890625 -0.21875q0.3125 -0.234375 0.3125 -0.59375zm6.9106445 2.28125q-1.703125 0 -2.78125 -1.046875q-1.0625 -1.046875 -1.0625 -2.7812424l0 -0.203125q0 -1.15625 0.453125 -2.078125q0.453125 -0.921875 1.265625 -1.421875q0.828125 -0.5 1.890625 -0.5q1.59375 0 2.5 1.015625q0.921875 1.0 0.921875 2.828125l0 0.84375l-4.9375 0q0.109375 0.7656174 0.609375 1.2187424q0.5 0.453125 1.28125 0.453125q1.1875 0 1.859375 -0.859375l1.015625 1.140625q-0.46875 0.65625 -1.265625 1.03125q-0.78125 0.359375 -1.75 0.359375zm-0.234375 -6.3593674q-0.625 0 -1.015625 0.421875q-0.375 0.421875 -0.46875 1.1875l2.875 0l0 -0.15625q-0.015625 -0.6875 -0.375 -1.0625q-0.359375 -0.390625 -1.015625 -0.390625zm8.937744 0.421875q-0.421875 -0.0625 -0.734375 -0.0625q-1.171875 0 -1.546875 0.796875l0 5.0624924l-2.0625 0l0 -7.7499924l1.953125 0l0.0625 0.9375q0.609375 -1.078125 1.71875 -1.078125q0.34375 0 0.640625 0.09375l-0.03125 2.0z" fill-rule="nonzero"/><path fill="#ffffff" d="m348.81067 146.68117l-4.125 0l0 2.796875l4.84375 0l0 1.71875l-6.984375 0l0 -10.421875l6.96875 0l0 1.734375l-4.828125 0l0 2.484375l4.125 0l0 1.6875zm3.7753906 -3.234375l0.0625 0.875q0.828125 -1.015625 2.234375 -1.015625q1.484375 0 2.046875 1.1875q0.8125 -1.1875 2.328125 -1.1875q1.25 0 1.859375 0.734375q0.625 0.734375 0.625 2.21875l0 4.9375l-2.078125 0l0 -4.9375q0 -0.65625 -0.265625 -0.953125q-0.25 -0.3125 -0.890625 -0.3125q-0.9375 0 -1.296875 0.890625l0.015625 5.3125l-2.078125 0l0 -4.9375q0 -0.671875 -0.265625 -0.96875q-0.265625 -0.296875 -0.890625 -0.296875q-0.890625 0 -1.28125 0.734375l0 5.46875l-2.0625 0l0 -7.75l1.9375 0zm17.719513 3.953125q0 1.78125 -0.8125 2.859375q-0.8125 1.078125 -2.1875 1.078125q-1.1875 0 -1.90625 -0.8125l0 3.65625l-2.0625 0l0 -10.734375l1.921875 0l0.0625 0.765625q0.75 -0.90625 1.96875 -0.90625q1.421875 0 2.21875 1.0625q0.796875 1.0625 0.796875 2.921875l0 0.109375zm-2.0625 -0.15625q0 -1.078125 -0.390625 -1.65625q-0.375 -0.59375 -1.109375 -0.59375q-0.96875 0 -1.34375 0.75l0 3.15625q0.375 0.765625 1.359375 0.765625q1.484375 0 1.484375 -2.421875zm3.0169067 0.015625q0 -1.15625 0.4375 -2.0625q0.453125 -0.90625 1.28125 -1.390625q0.84375 -0.5 1.9375 -0.5q1.578125 0 2.5625 0.96875q0.984375 0.953125 1.109375 2.59375l0.015625 0.53125q0 1.78125 -1.0 2.859375q-1.0 1.078125 -2.671875 1.078125q-1.671875 0 -2.671875 -1.0625q-1.0 -1.078125 -1.0 -2.921875l0 -0.09375zm2.078125 0.140625q0 1.109375 0.40625 1.6875q0.421875 0.578125 1.1875 0.578125q0.75 0 1.171875 -0.5625q0.421875 -0.578125 0.421875 -1.84375q0 -1.09375 -0.421875 -1.6875q-0.421875 -0.59375 -1.1875 -0.59375q-0.75 0 -1.171875 0.59375q-0.40625 0.59375 -0.40625 1.828125zm13.271454 0.984375l1.015625 -4.9375l2.0 0l-1.984375 7.75l-1.734375 0l-1.453125 -4.875l-1.46875 4.875l-1.734375 0l-1.96875 -7.75l2.0 0l1.0 4.9375l1.421875 -4.9375l1.5 0l1.40625 4.9375zm7.59848 2.953125q-1.703125 0 -2.78125 -1.046875q-1.0625 -1.046875 -1.0625 -2.78125l0 -0.203125q0 -1.15625 0.453125 -2.078125q0.453125 -0.921875 1.265625 -1.421875q0.828125 -0.5 1.890625 -0.5q1.59375 0 2.5 1.015625q0.921875 1.0 0.921875 2.828125l0 0.84375l-4.9375 0q0.109375 0.765625 0.609375 1.21875q0.5 0.453125 1.28125 0.453125q1.1875 0 1.859375 -0.859375l1.015625 1.140625q-0.46875 0.65625 -1.265625 1.03125q-0.78125 0.359375 -1.75 0.359375zm-0.234375 -6.359375q-0.625 0 -1.015625 0.421875q-0.375 0.421875 -0.46875 1.1875l2.875 0l0 -0.15625q-0.015625 -0.6875 -0.375 -1.0625q-0.359375 -0.390625 -1.015625 -0.390625zm8.937714 0.421875q-0.421875 -0.0625 -0.734375 -0.0625q-1.171875 0 -1.546875 0.796875l0 5.0625l-2.0625 0l0 -7.75l1.953125 0l0.0625 0.9375q0.609375 -1.078125 1.71875 -1.078125q0.34375 0 0.640625 0.09375l-0.03125 2.0zm2.9395752 -1.953125l0.0625 0.875q0.828125 -1.015625 2.234375 -1.015625q1.484375 0 2.046875 1.1875q0.8125 -1.1875 2.328125 -1.1875q1.25 0 1.859375 0.734375q0.625 0.734375 0.625 2.21875l0 4.9375l-2.078125 0l0 -4.9375q0 -0.65625 -0.265625 -0.953125q-0.25 -0.3125 -0.890625 -0.3125q-0.9375 0 -1.296875 0.890625l0.015625 5.3125l-2.078125 0l0 -4.9375q0 -0.671875 -0.265625 -0.96875q-0.265625 -0.296875 -0.890625 -0.296875q-0.890625 0 -1.28125 0.734375l0 5.46875l-2.0625 0l0 -7.75l1.9375 0zm14.313232 7.890625q-1.703125 0 -2.78125 -1.046875q-1.0625 -1.046875 -1.0625 -2.78125l0 -0.203125q0 -1.15625 0.453125 -2.078125q0.453125 -0.921875 1.265625 -1.421875q0.828125 -0.5 1.890625 -0.5q1.59375 0 2.5 1.015625q0.921875 1.0 0.921875 2.828125l0 0.84375l-4.9375 0q0.109375 0.765625 0.609375 1.21875q0.5 0.453125 1.28125 0.453125q1.1875 0 1.859375 -0.859375l1.015625 1.140625q-0.46875 0.65625 -1.265625 1.03125q-0.78125 0.359375 -1.75 0.359375zm-0.234375 -6.359375q-0.625 0 -1.015625 0.421875q-0.375 0.421875 -0.46875 1.1875l2.875 0l0 -0.15625q-0.015625 -0.6875 -0.375 -1.0625q-0.359375 -0.390625 -1.015625 -0.390625zm6.500244 -1.53125l0.0625 0.90625q0.828125 -1.046875 2.21875 -1.046875q1.234375 0 1.828125 0.734375q0.609375 0.71875 0.625 2.15625l0 5.0l-2.0625 0l0 -4.953125q0 -0.65625 -0.296875 -0.953125q-0.28125 -0.296875 -0.953125 -0.296875q-0.875 0 -1.3125 0.75l0 5.453125l-2.0625 0l0 -7.75l1.953125 0zm8.7708435 -1.890625l0 1.890625l1.328125 0l0 1.53125l-1.328125 0l0 3.859375q0 0.421875 0.15625 0.609375q0.171875 0.1875 0.640625 0.1875q0.34375 0 0.609375 -0.046875l0 1.5625q-0.609375 0.1875 -1.25 0.1875q-2.171875 0 -2.21875 -2.1875l0 -4.171875l-1.125 0l0 -1.53125l1.125 0l0 -1.890625l2.0625 0z" fill-rule="nonzero"/><path fill="#155b55" d="m334.4513 298.33163l0 0c0 -30.980133 25.11435 -56.094482 56.094482 -56.094482l0 0c14.877167 0 29.14502 5.9099426 39.664795 16.429688c10.519745 10.519775 16.429688 24.787628 16.429688 39.664795l0 0c0 30.980133 -25.11435 56.094513 -56.094482 56.094513l0 0c-30.980133 0 -56.094482 -25.11438 -56.094482 -56.094513z" fill-rule="evenodd"/><path fill="#000000" fill-opacity="0.0" d="m338.0651 277.542l131.71655 0l0 76.8819l-131.71655 0z" fill-rule="evenodd"/><path fill="#ffffff" d="m360.19922 285.09418q0 1.53125 -0.546875 2.703125q-0.53125 1.15625 -1.546875 1.78125q-1.015625 0.625 -2.328125 0.625q-1.296875 0 -2.3125 -0.625q-1.015625 -0.625 -1.578125 -1.765625q-0.546875 -1.15625 -0.5625 -2.671875l0 -0.515625q0 -1.53125 0.546875 -2.703125q0.5625 -1.171875 1.578125 -1.796875q1.015625 -0.625 2.3125 -0.625q1.3125 0 2.3125 0.625q1.015625 0.625 1.5625 1.796875q0.5625 1.171875 0.5625 2.703125l0 0.46875zm-2.171875 -0.484375q0 -1.625 -0.59375 -2.46875q-0.578125 -0.859375 -1.671875 -0.859375q-1.078125 0 -1.671875 0.84375q-0.578125 0.828125 -0.578125 2.453125l0 0.515625q0 1.59375 0.578125 2.46875q0.59375 0.875 1.6875 0.875q1.078125 0 1.65625 -0.84375q0.59375 -0.84375 0.59375 -2.46875l0 -0.515625zm10.572235 1.65625q0 1.78125 -0.8125 2.859375q-0.8125 1.078125 -2.1875 1.078125q-1.1875 0 -1.90625 -0.8125l0 3.65625l-2.0625 0l0 -10.734375l1.921875 0l0.0625 0.765625q0.75 -0.90625 1.96875 -0.90625q1.421875 0 2.21875 1.0625q0.796875 1.0625 0.796875 2.921875l0 0.109375zm-2.0625 -0.15625q0 -1.078125 -0.390625 -1.65625q-0.375 -0.59375 -1.109375 -0.59375q-0.96875 0 -1.34375 0.75l0 3.15625q0.375 0.765625 1.359375 0.765625q1.484375 0 1.484375 -2.421875zm6.9075623 4.09375q-1.703125 0 -2.78125 -1.046875q-1.0625 -1.046875 -1.0625 -2.78125l0 -0.203125q0 -1.15625 0.453125 -2.078125q0.453125 -0.921875 1.265625 -1.421875q0.828125 -0.5 1.890625 -0.5q1.59375 0 2.5 1.015625q0.921875 1.0 0.921875 2.828125l0 0.84375l-4.9375 0q0.109375 0.765625 0.609375 1.21875q0.5 0.453125 1.28125 0.453125q1.1875 0 1.859375 -0.859375l1.015625 1.140625q-0.46875 0.65625 -1.265625 1.03125q-0.78125 0.359375 -1.75 0.359375zm-0.234375 -6.359375q-0.625 0 -1.015625 0.421875q-0.375 0.421875 -0.46875 1.1875l2.875 0l0 -0.15625q-0.015625 -0.6875 -0.375 -1.0625q-0.359375 -0.390625 -1.015625 -0.390625zm6.5002136 -1.53125l0.0625 0.90625q0.828125 -1.046875 2.21875 -1.046875q1.234375 0 1.828125 0.734375q0.609375 0.71875 0.625 2.15625l0 5.0l-2.0625 0l0 -4.953125q0 -0.65625 -0.296875 -0.953125q-0.28125 -0.296875 -0.953125 -0.296875q-0.875 0 -1.3125 0.75l0 5.453125l-2.0625 0l0 -7.75l1.953125 0zm15.483124 5.015625q0 -0.609375 -0.4375 -0.9375q-0.421875 -0.328125 -1.546875 -0.6875q-1.109375 -0.359375 -1.75 -0.703125q-1.78125 -0.96875 -1.78125 -2.59375q0 -0.84375 0.46875 -1.5q0.484375 -0.65625 1.375 -1.03125q0.890625 -0.375 2.0 -0.375q1.125 0 1.984375 0.40625q0.875 0.40625 1.359375 1.140625q0.484375 0.734375 0.484375 1.671875l-2.140625 0q0 -0.71875 -0.453125 -1.109375q-0.453125 -0.40625 -1.265625 -0.40625q-0.796875 0 -1.234375 0.34375q-0.421875 0.328125 -0.421875 0.875q0 0.5 0.5 0.84375q0.515625 0.34375 1.515625 0.65625q1.828125 0.546875 2.65625 1.359375q0.84375 0.8125 0.84375 2.03125q0 1.359375 -1.03125 2.125q-1.015625 0.765625 -2.75 0.765625q-1.203125 0 -2.1875 -0.4375q-0.984375 -0.4375 -1.5 -1.203125q-0.515625 -0.765625 -0.515625 -1.78125l2.140625 0q0 1.734375 2.0625 1.734375q0.765625 0 1.1875 -0.3125q0.4375 -0.3125 0.4375 -0.875zm3.1504822 -1.203125q0 -1.15625 0.4375 -2.0625q0.453125 -0.90625 1.28125 -1.390625q0.84375 -0.5 1.9375 -0.5q1.578125 0 2.5625 0.96875q0.984375 0.953125 1.109375 2.59375l0.015625 0.53125q0 1.78125 -1.0 2.859375q-1.0 1.078125 -2.671875 1.078125q-1.671875 0 -2.671875 -1.0625q-1.0 -1.078125 -1.0 -2.921875l0 -0.09375zm2.078125 0.140625q0 1.109375 0.40625 1.6875q0.421875 0.578125 1.1875 0.578125q0.75 0 1.171875 -0.5625q0.421875 -0.578125 0.421875 -1.84375q0 -1.09375 -0.421875 -1.6875q-0.421875 -0.59375 -1.1875 -0.59375q-0.75 0 -1.171875 0.59375q-0.40625 0.59375 -0.40625 1.828125zm11.177704 3.015625q-0.765625 0.921875 -2.125 0.921875q-1.25 0 -1.90625 -0.703125q-0.640625 -0.71875 -0.65625 -2.109375l0 -5.078125l2.0625 0l0 5.015625q0 1.203125 1.109375 1.203125q1.046875 0 1.4375 -0.734375l0 -5.484375l2.078125 0l0 7.75l-1.953125 0l-0.046875 -0.78125zm7.9043274 -5.015625q-0.421875 -0.0625 -0.734375 -0.0625q-1.171875 0 -1.546875 0.796875l0 5.0625l-2.0625 0l0 -7.75l1.953125 0l0.0625 0.9375q0.609375 -1.078125 1.71875 -1.078125q0.34375 0 0.640625 0.09375l-0.03125 2.0zm4.0847473 4.265625q0.578125 0 0.921875 -0.3125q0.359375 -0.3125 0.375 -0.828125l1.9375 0q0 0.78125 -0.421875 1.4375q-0.421875 0.65625 -1.15625 1.015625q-0.734375 0.359375 -1.625 0.359375q-1.65625 0 -2.625 -1.046875q-0.953125 -1.0625 -0.953125 -2.921875l0 -0.140625q0 -1.78125 0.953125 -2.84375q0.953125 -1.078125 2.609375 -1.078125q1.453125 0 2.328125 0.828125q0.890625 0.828125 0.890625 2.203125l-1.9375 0q-0.015625 -0.59375 -0.375 -0.96875q-0.34375 -0.390625 -0.9375 -0.390625q-0.71875 0 -1.09375 0.53125q-0.359375 0.53125 -0.359375 1.703125l0 0.21875q0 1.203125 0.359375 1.71875q0.359375 0.515625 1.109375 0.515625zm7.9867554 1.671875q-1.703125 0 -2.78125 -1.046875q-1.0625 -1.046875 -1.0625 -2.78125l0 -0.203125q0 -1.15625 0.453125 -2.078125q0.453125 -0.921875 1.265625 -1.421875q0.828125 -0.5 1.890625 -0.5q1.59375 0 2.5 1.015625q0.921875 1.0 0.921875 2.828125l0 0.84375l-4.9375 0q0.109375 0.765625 0.609375 1.21875q0.5 0.453125 1.28125 0.453125q1.1875 0 1.859375 -0.859375l1.015625 1.140625q-0.46875 0.65625 -1.265625 1.03125q-0.78125 0.359375 -1.75 0.359375zm-0.234375 -6.359375q-0.625 0 -1.015625 0.421875q-0.375 0.421875 -0.46875 1.1875l2.875 0l0 -0.15625q-0.015625 -0.6875 -0.375 -1.0625q-0.359375 -0.390625 -1.015625 -0.390625z" fill-rule="nonzero"/><path fill="#ffffff" d="m356.17447 306.59418q-0.125 1.671875 -1.25 2.640625q-1.109375 0.96875 -2.9375 0.96875q-2.015625 0 -3.171875 -1.34375q-1.140625 -1.359375 -1.140625 -3.703125l0 -0.640625q0 -1.5 0.53125 -2.640625q0.53125 -1.15625 1.515625 -1.765625q0.984375 -0.609375 2.28125 -0.609375q1.8125 0 2.90625 0.96875q1.109375 0.96875 1.28125 2.703125l-2.140625 0q-0.078125 -1.0 -0.5625 -1.453125q-0.484375 -0.453125 -1.484375 -0.453125q-1.0625 0 -1.59375 0.765625q-0.53125 0.765625 -0.546875 2.390625l0 0.78125q0 1.6875 0.5 2.46875q0.515625 0.78125 1.625 0.78125q0.984375 0 1.46875 -0.453125q0.5 -0.453125 0.578125 -1.40625l2.140625 0zm0.9489136 -0.46875q0 -1.15625 0.4375 -2.0625q0.453125 -0.90625 1.28125 -1.390625q0.84375 -0.5 1.9375 -0.5q1.578125 0 2.5625 0.96875q0.984375 0.953125 1.109375 2.59375l0.015625 0.53125q0 1.78125 -1.0 2.859375q-1.0 1.078125 -2.671875 1.078125q-1.671875 0 -2.671875 -1.0625q-1.0 -1.078125 -1.0 -2.921875l0 -0.09375zm2.078125 0.140625q0 1.109375 0.40625 1.6875q0.421875 0.578125 1.1875 0.578125q0.75 0 1.171875 -0.5625q0.421875 -0.578125 0.421875 -1.84375q0 -1.09375 -0.421875 -1.6875q-0.421875 -0.59375 -1.1875 -0.59375q-0.75 0 -1.171875 0.59375q-0.40625 0.59375 -0.40625 1.828125zm8.724579 3.796875l-2.078125 0l0 -11.0l2.078125 0l0 11.0zm3.8859253 0l-2.078125 0l0 -11.0l2.078125 0l0 11.0zm6.18277 0q-0.140625 -0.28125 -0.203125 -0.6875q-0.75 0.828125 -1.953125 0.828125q-1.140625 0 -1.890625 -0.65625q-0.75 -0.65625 -0.75 -1.65625q0 -1.234375 0.90625 -1.890625q0.921875 -0.65625 2.640625 -0.671875l0.953125 0l0 -0.4375q0 -0.53125 -0.28125 -0.859375q-0.265625 -0.328125 -0.859375 -0.328125q-0.515625 0 -0.8125 0.25q-0.296875 0.25 -0.296875 0.6875l-2.078125 0q0 -0.671875 0.40625 -1.234375q0.421875 -0.578125 1.171875 -0.90625q0.765625 -0.328125 1.71875 -0.328125q1.421875 0 2.265625 0.71875q0.84375 0.71875 0.84375 2.03125l0 3.34375q0.015625 1.109375 0.3125 1.671875l0 0.125l-2.09375 0zm-1.703125 -1.4375q0.453125 0 0.828125 -0.203125q0.390625 -0.203125 0.578125 -0.546875l0 -1.328125l-0.765625 0q-1.5625 0 -1.65625 1.0625l0 0.125q0 0.390625 0.265625 0.640625q0.265625 0.25 0.75 0.25zm12.045197 -2.359375q0 1.859375 -0.796875 2.90625q-0.78125 1.03125 -2.203125 1.03125q-1.265625 0 -2.015625 -0.96875l-0.09375 0.828125l-1.859375 0l0 -11.0l2.0625 0l0 3.953125q0.71875 -0.84375 1.890625 -0.84375q1.40625 0 2.203125 1.046875q0.8125 1.046875 0.8125 2.921875l0 0.125zm-2.0625 -0.15625q0 -1.171875 -0.375 -1.703125q-0.375 -0.546875 -1.109375 -0.546875q-0.984375 0 -1.359375 0.8125l0 3.046875q0.375 0.8125 1.375 0.8125q1.0 0 1.3125 -0.984375q0.15625 -0.46875 0.15625 -1.4375zm3.0169373 0.015625q0 -1.15625 0.4375 -2.0625q0.453125 -0.90625 1.28125 -1.390625q0.84375 -0.5 1.9375 -0.5q1.578125 0 2.5625 0.96875q0.984375 0.953125 1.109375 2.59375l0.015625 0.53125q0 1.78125 -1.0 2.859375q-1.0 1.078125 -2.671875 1.078125q-1.671875 0 -2.671875 -1.0625q-1.0 -1.078125 -1.0 -2.921875l0 -0.09375zm2.078125 0.140625q0 1.109375 0.40625 1.6875q0.421875 0.578125 1.1875 0.578125q0.75 0 1.171875 -0.5625q0.421875 -0.578125 0.421875 -1.84375q0 -1.09375 -0.421875 -1.6875q-0.421875 -0.59375 -1.1875 -0.59375q-0.75 0 -1.171875 0.59375q-0.40625 0.59375 -0.40625 1.828125zm10.880829 -2.0q-0.421875 -0.0625 -0.734375 -0.0625q-1.171875 0 -1.546875 0.796875l0 5.0625l-2.0625 0l0 -7.75l1.953125 0l0.0625 0.9375q0.609375 -1.078125 1.71875 -1.078125q0.34375 0 0.640625 0.09375l-0.03125 2.0zm5.271576 5.796875q-0.140625 -0.28125 -0.203125 -0.6875q-0.75 0.828125 -1.953125 0.828125q-1.140625 0 -1.890625 -0.65625q-0.75 -0.65625 -0.75 -1.65625q0 -1.234375 0.90625 -1.890625q0.921875 -0.65625 2.640625 -0.671875l0.953125 0l0 -0.4375q0 -0.53125 -0.28125 -0.859375q-0.265625 -0.328125 -0.859375 -0.328125q-0.515625 0 -0.8125 0.25q-0.296875 0.25 -0.296875 0.6875l-2.078125 0q0 -0.671875 0.40625 -1.234375q0.421875 -0.578125 1.171875 -0.90625q0.765625 -0.328125 1.71875 -0.328125q1.421875 0 2.265625 0.71875q0.84375 0.71875 0.84375 2.03125l0 3.34375q0.015625 1.109375 0.3125 1.671875l0 0.125l-2.09375 0zm-1.703125 -1.4375q0.453125 0 0.828125 -0.203125q0.390625 -0.203125 0.578125 -0.546875l0 -1.328125l-0.765625 0q-1.5625 0 -1.65625 1.0625l0 0.125q0 0.390625 0.265625 0.640625q0.265625 0.25 0.75 0.25zm7.5451965 -8.203125l0 1.890625l1.328125 0l0 1.53125l-1.328125 0l0 3.859375q0 0.421875 0.15625 0.609375q0.171875 0.1875 0.640625 0.1875q0.34375 0 0.609375 -0.046875l0 1.5625q-0.609375 0.1875 -1.25 0.1875q-2.171875 0 -2.21875 -2.1875l0 -4.171875l-1.125 0l0 -1.53125l1.125 0l0 -1.890625l2.0625 0zm4.6709595 9.640625l-2.078125 0l0 -7.75l2.078125 0l0 7.75zm-2.203125 -9.75q0 -0.46875 0.3125 -0.765625q0.3125 -0.296875 0.84375 -0.296875q0.53125 0 0.84375 0.296875q0.3125 0.296875 0.3125 0.765625q0 0.46875 -0.3125 0.78125q-0.3125 0.296875 -0.84375 0.296875q-0.515625 0 -0.84375 -0.296875q-0.3125 -0.3125 -0.3125 -0.78125zm3.5734253 5.8125q0 -1.15625 0.4375 -2.0625q0.453125 -0.90625 1.28125 -1.390625q0.84375 -0.5 1.9375 -0.5q1.578125 0 2.5625 0.96875q0.984375 0.953125 1.109375 2.59375l0.015625 0.53125q0 1.78125 -1.0 2.859375q-1.0 1.078125 -2.671875 1.078125q-1.671875 0 -2.671875 -1.0625q-1.0 -1.078125 -1.0 -2.921875l0 -0.09375zm2.078125 0.140625q0 1.109375 0.40625 1.6875q0.421875 0.578125 1.1875 0.578125q0.75 0 1.171875 -0.5625q0.421875 -0.578125 0.421875 -1.84375q0 -1.09375 -0.421875 -1.6875q-0.421875 -0.59375 -1.1875 -0.59375q-0.75 0 -1.171875 0.59375q-0.40625 0.59375 -0.40625 1.828125zm8.443329 -3.953125l0.0625 0.90625q0.828125 -1.046875 2.21875 -1.046875q1.234375 0 1.828125 0.734375q0.609375 0.71875 0.625 2.15625l0 5.0l-2.0625 0l0 -4.953125q0 -0.65625 -0.296875 -0.953125q-0.28125 -0.296875 -0.953125 -0.296875q-0.875 0 -1.3125 0.75l0 5.453125l-2.0625 0l0 -7.75l1.953125 0z" fill-rule="nonzero"/><path fill="#155b55" d="m166.66257 395.539l0 0c0 -30.980133 25.114365 -56.094482 56.094498 -56.094482l0 0c14.877182 0 29.145035 5.909912 39.66478 16.429688c10.519775 10.519745 16.429688 24.787598 16.429688 39.664795l0 0c0 30.980133 -25.11435 56.094482 -56.094467 56.094482l0 0c-30.980133 0 -56.094498 -25.11435 -56.094498 -56.094482z" fill-rule="evenodd"/><path fill="#000000" fill-opacity="0.0" d="m164.2441 386.11285l121.95274 0l0 42.992126l-121.95274 0z" fill-rule="evenodd"/><path fill="#ffffff" d="m176.46284 401.68893l-2.15625 0l0 -10.421875l2.15625 0l0 10.421875zm3.7567291 -7.75l0.0625 0.90625q0.828125 -1.046875 2.21875 -1.046875q1.234375 0 1.828125 0.734375q0.609375 0.71875 0.625 2.15625l0 5.0l-2.0625 0l0 -4.953125q0 -0.65625 -0.296875 -0.953125q-0.28125 -0.296875 -0.953125 -0.296875q-0.875 0 -1.3125 0.75l0 5.453125l-2.0625 0l0 -7.75l1.953125 0zm8.770859 -1.890625l0 1.890625l1.328125 0l0 1.53125l-1.328125 0l0 3.859375q0 0.421875 0.15625 0.609375q0.171875 0.1875 0.640625 0.1875q0.34375 0 0.609375 -0.046875l0 1.5625q-0.609375 0.1875 -1.25 0.1875q-2.171875 0 -2.21875 -2.1875l0 -4.171875l-1.125 0l0 -1.53125l1.125 0l0 -1.890625l2.0625 0zm6.0459595 9.78125q-1.703125 0 -2.78125 -1.046875q-1.0625 -1.046875 -1.0625 -2.78125l0 -0.203125q0 -1.15625 0.453125 -2.078125q0.453125 -0.921875 1.265625 -1.421875q0.828125 -0.5 1.890625 -0.5q1.59375 0 2.5 1.015625q0.921875 1.0 0.921875 2.828125l0 0.84375l-4.9375 0q0.109375 0.765625 0.609375 1.21875q0.5 0.453125 1.28125 0.453125q1.1875 0 1.859375 -0.859375l1.015625 1.140625q-0.46875 0.65625 -1.265625 1.03125q-0.78125 0.359375 -1.75 0.359375zm-0.234375 -6.359375q-0.625 0 -1.015625 0.421875q-0.375 0.421875 -0.46875 1.1875l2.875 0l0 -0.15625q-0.015625 -0.6875 -0.375 -1.0625q-0.359375 -0.390625 -1.015625 -0.390625zm8.937729 0.421875q-0.421875 -0.0625 -0.734375 -0.0625q-1.171875 0 -1.546875 0.796875l0 5.0625l-2.0625 0l0 -7.75l1.953125 0l0.0625 0.9375q0.609375 -1.078125 1.71875 -1.078125q0.34375 0 0.640625 0.09375l-0.03125 2.0zm0.41612244 1.859375q0 -1.15625 0.4375 -2.0625q0.453125 -0.90625 1.28125 -1.390625q0.84375 -0.5 1.9375 -0.5q1.578125 0 2.5625 0.96875q0.984375 0.953125 1.109375 2.59375l0.015625 0.53125q0 1.78125 -1.0 2.859375q-1.0 1.078125 -2.671875 1.078125q-1.671875 0 -2.671875 -1.0625q-1.0 -1.078125 -1.0 -2.921875l0 -0.09375zm2.078125 0.140625q0 1.109375 0.40625 1.6875q0.421875 0.578125 1.1875 0.578125q0.75 0 1.171875 -0.5625q0.421875 -0.578125 0.421875 -1.84375q0 -1.09375 -0.421875 -1.6875q-0.421875 -0.59375 -1.1875 -0.59375q-0.75 0 -1.171875 0.59375q-0.40625 0.59375 -0.40625 1.828125zm13.505829 0q0 1.78125 -0.8125 2.859375q-0.8125 1.078125 -2.1875 1.078125q-1.1875 0 -1.90625 -0.8125l0 3.65625l-2.0625 0l0 -10.734375l1.921875 0l0.0625 0.765625q0.75 -0.90625 1.96875 -0.90625q1.421875 0 2.21875 1.0625q0.796875 1.0625 0.796875 2.921875l0 0.109375zm-2.0625 -0.15625q0 -1.078125 -0.390625 -1.65625q-0.375 -0.59375 -1.109375 -0.59375q-0.96875 0 -1.34375 0.75l0 3.15625q0.375 0.765625 1.359375 0.765625q1.484375 0 1.484375 -2.421875zm6.907547 4.09375q-1.703125 0 -2.78125 -1.046875q-1.0625 -1.046875 -1.0625 -2.78125l0 -0.203125q0 -1.15625 0.453125 -2.078125q0.453125 -0.921875 1.265625 -1.421875q0.828125 -0.5 1.890625 -0.5q1.59375 0 2.5 1.015625q0.921875 1.0 0.921875 2.828125l0 0.84375l-4.9375 0q0.109375 0.765625 0.609375 1.21875q0.5 0.453125 1.28125 0.453125q1.1875 0 1.859375 -0.859375l1.015625 1.140625q-0.46875 0.65625 -1.265625 1.03125q-0.78125 0.359375 -1.75 0.359375zm-0.234375 -6.359375q-0.625 0 -1.015625 0.421875q-0.375 0.421875 -0.46875 1.1875l2.875 0l0 -0.15625q-0.015625 -0.6875 -0.375 -1.0625q-0.359375 -0.390625 -1.015625 -0.390625zm8.937729 0.421875q-0.421875 -0.0625 -0.734375 -0.0625q-1.171875 0 -1.546875 0.796875l0 5.0625l-2.0625 0l0 -7.75l1.953125 0l0.0625 0.9375q0.609375 -1.078125 1.71875 -1.078125q0.34375 0 0.640625 0.09375l-0.03125 2.0zm5.271591 5.796875q-0.140625 -0.28125 -0.203125 -0.6875q-0.75 0.828125 -1.953125 0.828125q-1.140625 0 -1.890625 -0.65625q-0.75 -0.65625 -0.75 -1.65625q0 -1.234375 0.90625 -1.890625q0.921875 -0.65625 2.640625 -0.671875l0.953125 0l0 -0.4375q0 -0.53125 -0.28125 -0.859375q-0.265625 -0.328125 -0.859375 -0.328125q-0.515625 0 -0.8125 0.25q-0.296875 0.25 -0.296875 0.6875l-2.078125 0q0 -0.671875 0.40625 -1.234375q0.421875 -0.578125 1.171875 -0.90625q0.765625 -0.328125 1.71875 -0.328125q1.421875 0 2.265625 0.71875q0.84375 0.71875 0.84375 2.03125l0 3.34375q0.015625 1.109375 0.3125 1.671875l0 0.125l-2.09375 0zm-1.703125 -1.4375q0.453125 0 0.828125 -0.203125q0.390625 -0.203125 0.578125 -0.546875l0 -1.328125l-0.765625 0q-1.5625 0 -1.65625 1.0625l0 0.125q0 0.390625 0.265625 0.640625q0.265625 0.25 0.75 0.25zm12.045197 -2.359375q0 1.859375 -0.796875 2.90625q-0.78125 1.03125 -2.203125 1.03125q-1.265625 0 -2.015625 -0.96875l-0.09375 0.828125l-1.859375 0l0 -11.0l2.0625 0l0 3.953125q0.71875 -0.84375 1.890625 -0.84375q1.40625 0 2.203125 1.046875q0.8125 1.046875 0.8125 2.921875l0 0.125zm-2.0625 -0.15625q0 -1.171875 -0.375 -1.703125q-0.375 -0.546875 -1.109375 -0.546875q-0.984375 0 -1.359375 0.8125l0 3.046875q0.375 0.8125 1.375 0.8125q1.0 0 1.3125 -0.984375q0.15625 -0.46875 0.15625 -1.4375zm5.532547 3.953125l-2.078125 0l0 -7.75l2.078125 0l0 7.75zm-2.203125 -9.75q0 -0.46875 0.3125 -0.765625q0.3125 -0.296875 0.84375 -0.296875q0.53125 0 0.84375 0.296875q0.3125 0.296875 0.3125 0.765625q0 0.46875 -0.3125 0.78125q-0.3125 0.296875 -0.84375 0.296875q-0.515625 0 -0.84375 -0.296875q-0.3125 -0.3125 -0.3125 -0.78125zm6.089035 9.75l-2.078125 0l0 -11.0l2.078125 0l0 11.0zm3.8858948 0l-2.078125 0l0 -7.75l2.078125 0l0 7.75zm-2.203125 -9.75q0 -0.46875 0.3125 -0.765625q0.3125 -0.296875 0.84375 -0.296875q0.53125 0 0.84375 0.296875q0.3125 0.296875 0.3125 0.765625q0 0.46875 -0.3125 0.78125q-0.3125 0.296875 -0.84375 0.296875q-0.515625 0 -0.84375 -0.296875q-0.3125 -0.3125 -0.3125 -0.78125zm6.3703003 0.109375l0 1.890625l1.328125 0l0 1.53125l-1.328125 0l0 3.859375q0 0.421875 0.15625 0.609375q0.171875 0.1875 0.640625 0.1875q0.34375 0 0.609375 -0.046875l0 1.5625q-0.609375 0.1875 -1.25 0.1875q-2.171875 0 -2.21875 -2.1875l0 -4.171875l-1.125 0l0 -1.53125l1.125 0l0 -1.890625l2.0625 0zm5.3740845 6.71875l1.421875 -4.828125l2.21875 0l-3.109375 8.953125l-0.171875 0.40625q-0.6875 1.515625 -2.28125 1.515625q-0.453125 0 -0.921875 -0.140625l0 -1.5625l0.3125 0.015625q0.59375 0 0.875 -0.1875q0.296875 -0.171875 0.453125 -0.59375l0.25 -0.640625l-2.71875 -7.765625l2.234375 0l1.4375 4.828125z" fill-rule="nonzero"/><path fill="#155b55" d="m-1.5958006E-4 313.17023l0 0c0 -30.980133 25.114359 -56.094482 56.09449 -56.094482l0 0c14.877182 0 29.145035 5.9099426 39.664795 16.429688c10.5197525 10.519775 16.429695 24.787628 16.429695 39.664795l0 0c0 30.980133 -25.114365 56.094482 -56.09449 56.094482l0 0c-30.980131 0 -56.09449 -25.11435 -56.09449 -56.094482z" fill-rule="evenodd"/><path fill="#000000" fill-opacity="0.0" d="m3.6766496 306.9449l131.71654 0l0 76.8819l-131.71654 0z" fill-rule="evenodd"/><path fill="#ffffff" d="m13.61415 319.46582l0 -10.421875l3.203124 0q1.375 0 2.453125 0.625q1.078125 0.609375 1.6875 1.75q0.609375 1.140625 0.609375 2.59375l0 0.484375q0 1.453125 -0.59375 2.59375q-0.59375 1.125 -1.6875 1.75q-1.078125 0.625 -2.453125 0.625l-3.218749 0zm2.140625 -8.6875l0 6.96875l1.031249 0q1.265625 0 1.921875 -0.828125q0.671875 -0.828125 0.6875 -2.359375l0 -0.546875q0 -1.59375 -0.65625 -2.40625q-0.65625 -0.828125 -1.921875 -0.828125l-1.062499 0zm11.728255 8.6875q-0.140625 -0.28125 -0.203125 -0.6875q-0.75 0.828125 -1.953125 0.828125q-1.140625 0 -1.890625 -0.65625q-0.75 -0.65625 -0.75 -1.65625q0 -1.234375 0.90625 -1.890625q0.921875 -0.65625 2.640625 -0.671875l0.953125 0l0 -0.4375q0 -0.53125 -0.28125 -0.859375q-0.265625 -0.328125 -0.859375 -0.328125q-0.515625 0 -0.8125 0.25q-0.296875 0.25 -0.296875 0.6875l-2.078125 0q0 -0.671875 0.40625 -1.234375q0.421875 -0.578125 1.171875 -0.90625q0.765625 -0.328125 1.71875 -0.328125q1.421875 0 2.265625 0.71875q0.84375 0.71875 0.84375 2.03125l0 3.34375q0.015625 1.109375 0.3125 1.671875l0 0.125l-2.09375 0zm-1.703125 -1.4375q0.453125 0 0.828125 -0.203125q0.390625 -0.203125 0.578125 -0.546875l0 -1.328125l-0.765625 0q-1.5625 0 -1.65625 1.0625l0 0.125q0 0.390625 0.265625 0.640625q0.265625 0.25 0.75 0.25zm7.5451984 -8.203125l0 1.890625l1.328125 0l0 1.53125l-1.328125 0l0 3.859375q0 0.421875 0.15625 0.609375q0.171875 0.1875 0.640625 0.1875q0.34375 0 0.609375 -0.046875l0 1.5625q-0.609375 0.1875 -1.25 0.1875q-2.171877 0 -2.218752 -2.1875l0 -4.171875l-1.125 0l0 -1.53125l1.125 0l0 -1.890625l2.062502 0zm6.9678345 9.640625q-0.140625 -0.28125 -0.203125 -0.6875q-0.75 0.828125 -1.953125 0.828125q-1.140625 0 -1.890625 -0.65625q-0.75 -0.65625 -0.75 -1.65625q0 -1.234375 0.90625 -1.890625q0.921875 -0.65625 2.640625 -0.671875l0.953125 0l0 -0.4375q0 -0.53125 -0.28125 -0.859375q-0.265625 -0.328125 -0.859375 -0.328125q-0.515625 0 -0.8125 0.25q-0.296875 0.25 -0.296875 0.6875l-2.078125 0q0 -0.671875 0.40625 -1.234375q0.421875 -0.578125 1.171875 -0.90625q0.765625 -0.328125 1.71875 -0.328125q1.421875 0 2.265625 0.71875q0.84375 0.71875 0.84375 2.03125l0 3.34375q0.015625 1.109375 0.3125 1.671875l0 0.125l-2.09375 0zm-1.703125 -1.4375q0.453125 0 0.828125 -0.203125q0.390625 -0.203125 0.578125 -0.546875l0 -1.328125l-0.765625 0q-1.5625 0 -1.65625 1.0625l0 0.125q0 0.390625 0.265625 0.640625q0.265625 0.25 0.75 0.25zm11.007446 -2.234375l0 3.671875l-2.140625 0l0 -10.421875l4.0625 0q1.171875 0 2.0625 0.4375q0.890625 0.421875 1.359375 1.21875q0.484375 0.78125 0.484375 1.796875q0 1.53125 -1.046875 2.421875q-1.046875 0.875 -2.90625 0.875l-1.875 0zm0 -1.734375l1.921875 0q0.84375 0 1.28125 -0.40625q0.453125 -0.40625 0.453125 -1.140625q0 -0.765625 -0.453125 -1.234375q-0.4375 -0.484375 -1.234375 -0.5l-1.96875 0l0 3.28125zm11.5160675 -0.390625q-0.421875 -0.0625 -0.734375 -0.0625q-1.171875 0 -1.546875 0.796875l0 5.0625l-2.0625 0l0 -7.75l1.953125 0l0.0625 0.9375q0.609375 -1.078125 1.71875 -1.078125q0.34375 0 0.640625 0.09375l-0.03125 2.0zm3.18956 5.796875l-2.078125 0l0 -7.75l2.078125 0l0 7.75zm-2.203125 -9.75q0 -0.46875 0.3125 -0.765625q0.3125 -0.296875 0.84375 -0.296875q0.53125 0 0.84375 0.296875q0.3125 0.296875 0.3125 0.765625q0 0.46875 -0.3125 0.78125q-0.3125 0.296875 -0.84375 0.296875q-0.515625 0 -0.84375 -0.296875q-0.3125 -0.3125 -0.3125 -0.78125zm6.79216 7.21875l1.4375 -5.21875l2.171875 0l-2.609375 7.75l-1.984375 0l-2.609375 -7.75l2.15625 0l1.4375 5.21875zm8.893173 2.53125q-0.140625 -0.28125 -0.203125 -0.6875q-0.75 0.828125 -1.953125 0.828125q-1.140625 0 -1.890625 -0.65625q-0.75 -0.65625 -0.75 -1.65625q0 -1.234375 0.90625 -1.890625q0.921875 -0.65625 2.640625 -0.671875l0.953125 0l0 -0.4375q0 -0.53125 -0.28125 -0.859375q-0.265625 -0.328125 -0.859375 -0.328125q-0.515625 0 -0.8125 0.25q-0.296875 0.25 -0.296875 0.6875l-2.078125 0q0 -0.671875 0.40625 -1.234375q0.421875 -0.578125 1.171875 -0.90625q0.765625 -0.328125 1.71875 -0.328125q1.421875 0 2.265625 0.71875q0.84375 0.71875 0.84375 2.03125l0 3.34375q0.015625 1.109375 0.3125 1.671875l0 0.125l-2.09375 0zm-1.703125 -1.4375q0.453125 0 0.828125 -0.203125q0.390625 -0.203125 0.578125 -0.546875l0 -1.328125l-0.765625 0q-1.5625 0 -1.65625 1.0625l0 0.125q0 0.390625 0.265625 0.640625q0.265625 0.25 0.75 0.25zm8.295197 -0.09375q0.578125 0 0.921875 -0.3125q0.359375 -0.3125 0.375 -0.828125l1.9375 0q0 0.78125 -0.421875 1.4375q-0.421875 0.65625 -1.15625 1.015625q-0.734375 0.359375 -1.625 0.359375q-1.65625 0 -2.625 -1.046875q-0.953125 -1.0625 -0.953125 -2.921875l0 -0.140625q0 -1.78125 0.953125 -2.84375q0.953125 -1.078125 2.609375 -1.078125q1.453125 0 2.328125 0.828125q0.890625 0.828125 0.890625 2.203125l-1.9375 0q-0.015625 -0.59375 -0.375 -0.96875q-0.34375 -0.390625 -0.9375 -0.390625q-0.71875 0 -1.09375 0.53125q-0.359375 0.53125 -0.359375 1.703125l0 0.21875q0 1.203125 0.359375 1.71875q0.359375 0.515625 1.109375 0.515625zm7.3148804 -1.390625l1.421875 -4.828125l2.21875 0l-3.109375 8.953125l-0.171875 0.40625q-0.6875 1.515625 -2.28125 1.515625q-0.453125 0 -0.921875 -0.140625l0 -1.5625l0.3125 0.015625q0.59375 0 0.875 -0.1875q0.296875 -0.171875 0.453125 -0.59375l0.25 -0.640625l-2.71875 -7.765625l2.234375 0l1.4375 4.828125z" fill-rule="nonzero"/><path fill="#155b55" d="m0.0011527559 141.80672l0 0c0 -30.980133 25.114359 -56.09449 56.09449 -56.09449l0 0c14.877182 0 29.145035 5.909935 39.664795 16.429695c10.5197525 10.5197525 16.429695 24.787605 16.429695 39.664795l0 0c0 30.980133 -25.114365 56.094482 -56.09449 56.094482l0 0c-30.980131 0 -56.09449 -25.11435 -56.09449 -56.094482z" fill-rule="evenodd"/><path fill="#000000" fill-opacity="0.0" d="m8.338067 140.13518l131.71652 0l0 76.88188l-131.71652 0z" fill-rule="evenodd"/><path fill="#ffffff" d="m30.96569 129.92174q0 -0.609375 -0.4375 -0.9375q-0.421875 -0.328125 -1.546875 -0.6875q-1.109375 -0.359375 -1.75 -0.703125q-1.78125 -0.96875 -1.78125 -2.59375q0 -0.84375 0.46875 -1.5q0.484375 -0.65625 1.375 -1.03125q0.890625 -0.375 2.0 -0.375q1.125 0 1.984375 0.40625q0.875 0.40625 1.359375 1.140625q0.484375 0.734375 0.484375 1.671875l-2.140625 0q0 -0.71875 -0.453125 -1.109375q-0.453125 -0.40625 -1.265625 -0.40625q-0.796875 0 -1.234375 0.34375q-0.421875 0.328125 -0.421875 0.875q0 0.5 0.5 0.84375q0.515625 0.34375 1.515625 0.65625q1.828125 0.546875 2.65625 1.359375q0.84375 0.8125 0.84375 2.03125q0 1.359375 -1.03125 2.125q-1.015625 0.765625 -2.75 0.765625q-1.203125 0 -2.1875 -0.4375q-0.984375 -0.4375 -1.5 -1.203125q-0.515625 -0.765625 -0.515625 -1.78125l2.140625 0q0 1.734375 2.0625 1.734375q0.765625 0 1.1875 -0.3125q0.4375 -0.3125 0.4375 -0.875zm6.6973724 1.203125q0.578125 0 0.921875 -0.3125q0.359375 -0.3125 0.375 -0.828125l1.9375 0q0 0.78125 -0.421875 1.4375q-0.421875 0.65625 -1.15625 1.015625q-0.734375 0.359375 -1.625 0.359375q-1.65625 0 -2.625 -1.046875q-0.953125 -1.0625 -0.953125 -2.921875l0 -0.140625q0 -1.78125 0.953125 -2.84375q0.953125 -1.078125 2.609375 -1.078125q1.453125 0 2.328125 0.828125q0.890625 0.828125 0.890625 2.203125l-1.9375 0q-0.015625 -0.59375 -0.375 -0.96875q-0.34375 -0.390625 -0.9375 -0.390625q-0.71875 0 -1.09375 0.53125q-0.359375 0.53125 -0.359375 1.703125l0 0.21875q0 1.203125 0.359375 1.71875q0.359375 0.515625 1.109375 0.515625zm8.90863 1.53125q-0.140625 -0.28125 -0.203125 -0.6875q-0.75 0.828125 -1.953125 0.828125q-1.140625 0 -1.890625 -0.65625q-0.75 -0.65625 -0.75 -1.65625q0 -1.234375 0.90625 -1.890625q0.921875 -0.65625 2.640625 -0.671875l0.953125 0l0 -0.4375q0 -0.53125 -0.28125 -0.859375q-0.265625 -0.328125 -0.859375 -0.328125q-0.515625 0 -0.8125 0.25q-0.296875 0.25 -0.296875 0.6875l-2.078125 0q0 -0.671875 0.40625 -1.234375q0.421875 -0.578125 1.171875 -0.90625q0.765625 -0.328125 1.71875 -0.328125q1.421875 0 2.265625 0.71875q0.84375 0.71875 0.84375 2.03125l0 3.34375q0.015625 1.109375 0.3125 1.671875l0 0.125l-2.09375 0zm-1.703125 -1.4375q0.453125 0 0.828125 -0.203125q0.390625 -0.203125 0.578125 -0.546875l0 -1.328125l-0.765625 0q-1.5625 0 -1.65625 1.0625l0 0.125q0 0.390625 0.265625 0.640625q0.265625 0.25 0.75 0.25zm7.2639465 1.4375l-2.078125 0l0 -11.0l2.078125 0l0 11.0zm6.182785 0q-0.140625 -0.28125 -0.203125 -0.6875q-0.75 0.828125 -1.953125 0.828125q-1.140625 0 -1.890625 -0.65625q-0.75 -0.65625 -0.75 -1.65625q0 -1.234375 0.90625 -1.890625q0.921875 -0.65625 2.640625 -0.671875l0.953125 0l0 -0.4375q0 -0.53125 -0.28125 -0.859375q-0.265625 -0.328125 -0.859375 -0.328125q-0.515625 0 -0.8125 0.25q-0.296875 0.25 -0.296875 0.6875l-2.078125 0q0 -0.671875 0.40625 -1.234375q0.421875 -0.578125 1.171875 -0.90625q0.765625 -0.328125 1.71875 -0.328125q1.421875 0 2.265625 0.71875q0.84375 0.71875 0.84375 2.03125l0 3.34375q0.015625 1.109375 0.3125 1.671875l0 0.125l-2.09375 0zm-1.703125 -1.4375q0.453125 0 0.828125 -0.203125q0.390625 -0.203125 0.578125 -0.546875l0 -1.328125l-0.765625 0q-1.5625 0 -1.65625 1.0625l0 0.125q0 0.390625 0.265625 0.640625q0.265625 0.25 0.75 0.25zm12.045197 -2.359375q0 1.859375 -0.796875 2.90625q-0.78125 1.03125 -2.203125 1.03125q-1.265625 0 -2.015625 -0.96875l-0.09375 0.828125l-1.859375 0l0 -11.0l2.0625 0l0 3.953125q0.71875 -0.84375 1.890625 -0.84375q1.40625 0 2.203125 1.046875q0.8125 1.046875 0.8125 2.921875l0 0.125zm-2.0625 -0.15625q0 -1.171875 -0.375 -1.703125q-0.375 -0.546875 -1.109375 -0.546875q-0.984375 0 -1.359375 0.8125l0 3.046875q0.375 0.8125 1.375 0.8125q1.0 0 1.3125 -0.984375q0.15625 -0.46875 0.15625 -1.4375zm5.532547 3.953125l-2.078125 0l0 -11.0l2.078125 0l0 11.0zm5.26091 0.140625q-1.703125 0 -2.78125 -1.046875q-1.0625 -1.046875 -1.0625 -2.78125l0 -0.203125q0 -1.15625 0.453125 -2.078125q0.453125 -0.921875 1.265625 -1.421875q0.828125 -0.5 1.890625 -0.5q1.59375 0 2.5 1.015625q0.921875 1.0 0.921875 2.828125l0 0.84375l-4.9375 0q0.109375 0.765625 0.609375 1.21875q0.5 0.453125 1.28125 0.453125q1.1875 0 1.859375 -0.859375l1.015625 1.140625q-0.46875 0.65625 -1.265625 1.03125q-0.78125 0.359375 -1.75 0.359375zm-0.234375 -6.359375q-0.625 0 -1.015625 0.421875q-0.375 0.421875 -0.46875 1.1875l2.875 0l0 -0.15625q-0.015625 -0.6875 -0.375 -1.0625q-0.359375 -0.390625 -1.015625 -0.390625z" fill-rule="nonzero"/><path fill="#ffffff" d="m24.541191 148.14049l-4.125 0l0 2.796875l4.84375 0l0 1.71875l-6.984375 0l0 -10.421875l6.96875 0l0 1.734375l-4.828125 0l0 2.484375l4.125 0l0 1.6875zm4.920578 2.984375q0.578125 0 0.921875 -0.3125q0.359375 -0.3125 0.375 -0.828125l1.9375 0q0 0.78125 -0.421875 1.4375q-0.421875 0.65625 -1.15625 1.015625q-0.734375 0.359375 -1.625 0.359375q-1.65625 0 -2.625 -1.046875q-0.953125 -1.0625 -0.953125 -2.921875l0 -0.140625q0 -1.78125 0.953125 -2.84375q0.953125 -1.078125 2.609375 -1.078125q1.453125 0 2.328125 0.828125q0.890625 0.828125 0.890625 2.203125l-1.9375 0q-0.015625 -0.59375 -0.375 -0.96875q-0.34375 -0.390625 -0.9375 -0.390625q-0.71875 0 -1.09375 0.53125q-0.359375 0.53125 -0.359375 1.703125l0 0.21875q0 1.203125 0.359375 1.71875q0.359375 0.515625 1.109375 0.515625zm4.0961304 -2.40625q0 -1.15625 0.4375 -2.0625q0.453125 -0.90625 1.28125 -1.390625q0.84375 -0.5 1.9375 -0.5q1.578125 0 2.5625 0.96875q0.984375 0.953125 1.109375 2.59375l0.015625 0.53125q0 1.78125 -1.0 2.859375q-1.0 1.078125 -2.671875 1.078125q-1.671875 0 -2.671875 -1.0625q-1.0 -1.078125 -1.0 -2.921875l0 -0.09375zm2.078125 0.140625q0 1.109375 0.40625 1.6875q0.421875 0.578125 1.1875 0.578125q0.75 0 1.171875 -0.5625q0.421875 -0.578125 0.421875 -1.84375q0 -1.09375 -0.421875 -1.6875q-0.421875 -0.59375 -1.1875 -0.59375q-0.75 0 -1.171875 0.59375q-0.40625 0.59375 -0.40625 1.828125zm10.724579 1.65625q0 -0.375 -0.375 -0.59375q-0.375 -0.21875 -1.203125 -0.390625q-2.765625 -0.578125 -2.765625 -2.34375q0 -1.03125 0.859375 -1.71875q0.859375 -0.703125 2.234375 -0.703125q1.46875 0 2.359375 0.703125q0.890625 0.6875 0.890625 1.796875l-2.078125 0q0 -0.4375 -0.28125 -0.71875q-0.28125 -0.296875 -0.890625 -0.296875q-0.53125 0 -0.8125 0.234375q-0.28125 0.234375 -0.28125 0.59375q0 0.34375 0.3125 0.5625q0.328125 0.203125 1.09375 0.359375q0.78125 0.15625 1.3125 0.34375q1.640625 0.609375 1.640625 2.09375q0 1.046875 -0.90625 1.703125q-0.90625 0.65625 -2.34375 0.65625q-0.984375 0 -1.734375 -0.34375q-0.75 -0.34375 -1.1875 -0.953125q-0.421875 -0.609375 -0.421875 -1.3125l1.953125 0q0.03125 0.5625 0.40625 0.859375q0.390625 0.28125 1.015625 0.28125q0.59375 0 0.890625 -0.21875q0.3125 -0.234375 0.3125 -0.59375zm6.238785 -0.78125l1.421875 -4.828125l2.21875 0l-3.109375 8.953125l-0.171875 0.40625q-0.6875 1.515625 -2.28125 1.515625q-0.453125 0 -0.921875 -0.140625l0 -1.5625l0.3125 0.015625q0.59375 0 0.875 -0.1875q0.296875 -0.171875 0.453125 -0.59375l0.25 -0.640625l-2.71875 -7.765625l2.234375 0l1.4375 4.828125zm8.6536255 0.78125q0 -0.375 -0.375 -0.59375q-0.375 -0.21875 -1.203125 -0.390625q-2.765625 -0.578125 -2.765625 -2.34375q0 -1.03125 0.859375 -1.71875q0.859375 -0.703125 2.234375 -0.703125q1.46875 0 2.359375 0.703125q0.890625 0.6875 0.890625 1.796875l-2.078125 0q0 -0.4375 -0.28125 -0.71875q-0.28125 -0.296875 -0.890625 -0.296875q-0.53125 0 -0.8125 0.234375q-0.28125 0.234375 -0.28125 0.59375q0 0.34375 0.3125 0.5625q0.328125 0.203125 1.09375 0.359375q0.78125 0.15625 1.3125 0.34375q1.640625 0.609375 1.640625 2.09375q0 1.046875 -0.90625 1.703125q-0.90625 0.65625 -2.34375 0.65625q-0.984375 0 -1.734375 -0.34375q-0.75 -0.34375 -1.1875 -0.953125q-0.421875 -0.609375 -0.421875 -1.3125l1.953125 0q0.03125 0.5625 0.40625 0.859375q0.390625 0.28125 1.015625 0.28125q0.59375 0 0.890625 -0.21875q0.3125 -0.234375 0.3125 -0.59375zm5.81691 -7.5l0 1.890625l1.328125 0l0 1.53125l-1.328125 0l0 3.859375q0 0.421875 0.15625 0.609375q0.171875 0.1875 0.640625 0.1875q0.34375 0 0.609375 -0.046875l0 1.5625q-0.609375 0.1875 -1.25 0.1875q-2.171875 0 -2.21875 -2.1875l0 -4.171875l-1.125 0l0 -1.53125l1.125 0l0 -1.890625l2.0625 0zm6.0459595 9.78125q-1.703125 0 -2.78125 -1.046875q-1.0625 -1.046875 -1.0625 -2.78125l0 -0.203125q0 -1.15625 0.453125 -2.078125q0.453125 -0.921875 1.265625 -1.421875q0.828125 -0.5 1.890625 -0.5q1.59375 0 2.5 1.015625q0.921875 1.0 0.921875 2.828125l0 0.84375l-4.9375 0q0.109375 0.765625 0.609375 1.21875q0.5 0.453125 1.28125 0.453125q1.1875 0 1.859375 -0.859375l1.015625 1.140625q-0.46875 0.65625 -1.265625 1.03125q-0.78125 0.359375 -1.75 0.359375zm-0.234375 -6.359375q-0.625 0 -1.015625 0.421875q-0.375 0.421875 -0.46875 1.1875l2.875 0l0 -0.15625q-0.015625 -0.6875 -0.375 -1.0625q-0.359375 -0.390625 -1.015625 -0.390625zm6.531479 -1.53125l0.0625 0.875q0.828125 -1.015625 2.234375 -1.015625q1.484375 0 2.046875 1.1875q0.8125 -1.1875 2.328125 -1.1875q1.25 0 1.859375 0.734375q0.625 0.734375 0.625 2.21875l0 4.9375l-2.078125 0l0 -4.9375q0 -0.65625 -0.265625 -0.953125q-0.25 -0.3125 -0.890625 -0.3125q-0.9375 0 -1.296875 0.890625l0.015625 5.3125l-2.078125 0l0 -4.9375q0 -0.671875 -0.265625 -0.96875q-0.265625 -0.296875 -0.890625 -0.296875q-0.890625 0 -1.28125 0.734375l0 5.46875l-2.0625 0l0 -7.75l1.9375 0z" fill-rule="nonzero"/><path fill="#00362f" d="m307.41183 68.48538l0 0l5.9599915 -8.3487015l15.433075 27.779526l-31.307098 -5.5433044l5.9599915 -8.3487015l0 0z" fill-rule="evenodd"/><path fill="#007e6f" d="m401.32886 203.8298l0 0l10.240753 0.5912628l-15.275604 27.874008l-12.0 -29.448807l10.240753 0.5912628l0 0z" fill-rule="evenodd"/><path fill="#007e6f" d="m340.9018 357.3768l0 0l6.657654 7.804718l-30.692902 8.251984l12.960632 -29.039368l6.657654 7.804718l0 0z" fill-rule="evenodd"/><path fill="#007e6f" d="m126.33917 376.08194l0 0l-6.716797 7.7456055l-12.755905 -29.118103l30.64566 8.48819l-6.716797 7.7456055l0 0z" fill-rule="evenodd"/><path fill="#007e6f" d="m45.802338 232.32619l0 0l-10.252583 0l13.653542 -28.724411l13.653545 28.724411l-10.252583 0l0 0z" fill-rule="evenodd"/><path fill="#007e6f" d="m115.60221 85.29277l0 0l-6.0309296 -8.289574l31.244087 -5.874016l-15.181099 27.952759l-6.0309296 -8.289574l0 0z" fill-rule="evenodd"/></g></svg>