<?xml version="1.0" encoding="UTF-8" standalone="no"?>
<svg
   width="1024"
   height="1024"
   version="1.1"
   id="svg105"
   xmlns="http://www.w3.org/2000/svg"
   xmlns:svg="http://www.w3.org/2000/svg">
  <defs
     id="defs2">
    <linearGradient
       id="gradient_0"
       gradientUnits="userSpaceOnUse"
       x1="837.85211"
       y1="892.64423"
       x2="181.07686"
       y2="198.73007">
      <stop
         offset="0"
         stop-color="#061935"
         id="stop1" />
      <stop
         offset="1"
         stop-color="#05325A"
         id="stop2" />
    </linearGradient>
  </defs>
  <path
     fill="url(#gradient_0)"
     d="M285.31 773.665L284.634 773.829C278.765 775.211 272.417 775.755 266.439 776.68L232.25 782.361L143.817 801.579C128.616 805.39 113.079 809.032 98.2482 814.118L135.825 752.845L145.76 736.566C146.953 734.543 148.877 731.987 149.472 729.742L103.859 705.803C99.839 703.755 68.1027 688.754 67.2832 687.418L177.534 654.397L177.475 615.693L225.743 603.737C225.559 600.389 223.513 596.206 222.383 593.042L216.413 575.379L201.765 524.806L182.978 440.5C172.123 379.901 166.574 318.111 165.269 256.589L164.529 227.251C164.489 223.061 164.107 218.36 164.83 214.237C187.26 198.187 209.6 182.622 233.572 168.902C282.883 140.68 336.024 119.739 391.234 106.461C419.685 99.6185 449.042 94.5517 478.281 92.7226C519.027 90.1738 559.748 92.7984 599.995 99.4169C694.874 115.019 783.224 156.276 859.51 214.134L857.495 288.75C853.112 375.053 842.08 461.459 818.021 544.658L798.04 604.233L843.441 616.308L843.576 653.169L954.727 687.058L873.592 730.978L923.065 813.748L718.713 772.852L688.263 810.111C650.257 852.646 605.482 889.085 557.534 919.832L529.556 936.697C523.766 940.058 517.915 943.768 511.837 946.56L473.665 924.236C435.352 900.182 399.666 872.527 366.362 841.923C349.606 826.526 334.288 810.026 319.516 792.737C317.021 789.817 307.568 776.753 305.095 775.882L298.25 773.964C296.528 773.435 294.527 772.466 292.706 772.527C290.381 772.605 287.696 773.384 285.31 773.665Z"
     id="path2" />
  <path
     fill="#030F23"
     d="M728.1 718.084L728.569 717.445C729.474 717.546 729.886 717.731 730.75 718C731.814 718.331 732.094 718.357 733 717.755L733.75 718.255L736.75 718.255L737.25 718.755C738.37 718.755 739.437 718.442 740.25 719.255C741.633 719.255 742.829 718.974 744 719.755C745.191 719.755 745.476 719.572 746.5 720.255C747.744 720.255 748.434 720.044 749.5 720.755C750.567 720.755 750.966 720.471 751.75 721.255C752.86 721.255 753.436 720.941 754.25 721.755C755.541 721.755 756.399 721.521 757.5 722.255C758.567 722.255 758.966 721.971 759.75 722.755C760.997 722.755 761.435 722.545 762.5 723.255C763.691 723.255 763.976 723.072 765 723.755C766.191 723.755 766.476 723.572 767.5 724.255C768.567 724.255 768.966 723.971 769.75 724.755C770.86 724.755 771.436 724.441 772.25 725.255C773.381 725.255 773.516 725.099 774.5 725.755C775.744 725.755 776.434 725.544 777.5 726.255C778.563 726.255 778.554 726.124 779.5 726.755C780.691 726.755 780.976 726.572 782 727.255C783.191 727.255 783.476 727.072 784.5 727.755C785.691 727.755 785.976 727.572 787 728.255C788.191 728.255 788.476 728.072 789.5 728.755C790.691 728.755 790.976 728.572 792 729.255C793.191 729.255 793.476 729.072 794.5 729.755C795.691 729.755 795.976 729.572 797 730.255C798.191 730.255 798.476 730.072 799.5 730.755C800.466 730.755 800.531 730.536 801.25 731.255C802.497 731.255 802.935 731.045 804 731.755C804.966 731.755 805.031 731.536 805.75 732.255C806.997 732.255 807.435 732.045 808.5 732.755C809.563 732.755 809.554 732.624 810.5 733.255C811.563 733.255 811.554 733.124 812.5 733.755C813.785 733.755 813.873 733.663 815 734.255C815.729 734.638 817.163 734.776 817.997 735.003L819.997 735.503L821.997 736.003C822.925 736.255 823.792 736.444 824.716 736.752C825.979 737.173 826.919 737.286 828.25 737.255L829 737.755L829.875 738.003L830.245 738.75C829.449 738.963 828.924 739.054 828.083 739.082C827.205 738.244 826.72 738.154 825.533 737.993C823.509 737.718 821.49 736.928 819.503 736.434L805.501 733.072C802.64 732.295 799.57 732.119 796.75 731.234L794.642 730.817C792.216 730.442 789.63 729.846 787.25 729.245C785.521 728.809 783.748 728.65 782 728.209L780.503 727.924L771.971 726.166L769.954 725.786C769.104 725.666 768.552 725.448 767.75 725.245C766.104 724.828 764.413 724.661 762.75 724.245L761.003 723.926C758.795 723.522 754.845 722.094 752.75 722.902L752.465 723.572C751.153 726.527 748.559 729.432 746.777 732.164L730.716 755.656C728.64 758.588 726.314 762.771 723.649 765.125C725.442 759.981 729.938 755.09 733.25 750.755L732.503 750.497L731.5 750.245L725.003 746.997L723.5 746.245C722.126 745.328 723.721 746.112 722.244 745.436C719.841 744.337 717.711 743.192 715.145 742.456L731.25 719.435L731.114 718.75L728.1 718.084Z"
     id="path3" />
  <path
     fill="#010101"
     d="M196.389 745.372C197.363 745.074 198.124 744.805 199.147 745.017L227.25 752.242L258.706 760.501C267.315 762.862 275.93 764.154 284.315 767.346C278.291 759.857 274.372 752.25 270.712 743.394C268.948 739.125 267.406 734.704 266.071 730.284C265.741 729.192 264.883 724.579 264.351 724.031C264.125 723.798 263.761 723.749 263.5 723.555L263.125 723.125L263.642 723.039C264.745 722.794 263.814 723.005 265 722.255C265.623 721.861 267.233 721.737 268.002 721.503C269.329 721.099 270.735 721.15 271.979 721.775L271.077 722.056C271.1 724.221 274.02 727.816 275.222 729.749L282.905 741.97C285.253 745.447 305.353 773.006 305.437 774.5C305.463 774.974 305.209 775.422 305.095 775.882L298.25 773.964C296.528 773.435 294.527 772.466 292.706 772.527C290.381 772.605 287.696 773.384 285.31 773.665L284.957 773.3L284.517 773.003C286.634 772.578 287.856 772.75 289.25 771L288 770.245C286.705 769.419 285.182 769.728 283.665 769.494C284.122 768.923 283.978 769.253 284.071 768.494L282.523 768.061C278.703 767.619 274.676 766.215 270.95 765.224L248.52 759.12L196.389 745.372Z"
     id="path4" />
  <path
     fill="#00A9E2"
     d="M282.523 768.061L282.738 768.678C277.022 770.737 269.774 771.045 263.75 771.954L227.669 777.818C188.712 784.993 149.359 793.514 111.303 804.515L157.721 727.642L80.405 688.468L177.621 659.96L177.802 741.23L195.771 745.301L196.389 745.372L248.52 759.12L270.95 765.224C274.676 766.215 278.703 767.619 282.523 768.061Z"
     id="path5" />
  <path
     fill="#00A9E2"
     d="M843.4 658.979L912.083 678.459C922.007 681.49 931.99 684.485 941.59 688.451L865.767 728.51L910.913 804.651L878.312 796.67L826.946 785.25L763.519 774.048C751.605 772.296 739.744 770.348 727.709 769.707L843.5 737.723L843.4 658.979Z"
     id="path6" />
  <path
     fill="#2C4268"
     d="M705.935 714.694C713.123 715.838 720.849 717.814 728.1 718.084L731.114 718.75L731.25 719.435L715.145 742.456L714.401 743.103C666.193 806.169 608.532 859.696 541.156 901.799L518.855 914.861C516.895 915.898 514.18 917.742 512.05 917.989L511.497 917.99L511.713 881.202L511.548 880.647L511.495 865.023C522.059 861.108 532.306 854.599 541.938 848.795C592.933 818.067 638.095 777.84 676.931 732.882C681.376 733.276 685.935 733.677 690.243 734.878L690.607 734.907C693.778 730.053 697.709 725.502 701.315 720.955C702.882 718.98 704.822 716.952 705.935 714.694Z"
     id="path7" />
  <path
     fill="#959596"
     d="M676.931 732.882C681.376 733.276 685.935 733.677 690.243 734.878C685.296 741.651 679.413 747.676 673.97 754.037C646.726 785.875 615.021 814.071 581 838.479L546.238 861.655C537.885 867.121 529.354 872.48 520.518 877.127C517.898 878.505 514.61 880.564 511.713 881.202L511.548 880.647L511.495 865.023C522.059 861.108 532.306 854.599 541.938 848.795C592.933 818.067 638.095 777.84 676.931 732.882Z"
     id="path8" />
  <path
     fill="#AA261F"
     d="M511.396 266.869L542.151 286.524C573.759 305.276 606.372 323.091 640 337.978C667.28 350.055 695.36 360.03 723.868 368.742L736.122 372.535C741.44 375.086 744.793 378.125 746.744 383.843C748.213 388.147 748.067 392.117 748.092 396.603L748.113 411.599L748.078 448.85L748.446 555.586L748.651 593.196L736.48 590.795C732.67 589.979 727.298 588.228 723.478 588.661L722.246 588.508C722.004 588.255 721.659 588.071 721.521 587.75C721.097 586.763 721.432 583.721 721.415 582.439L721.487 560.752L721.483 491.388C721.46 478.53 722.053 465.219 721.075 452.419L720.945 391.811C716.366 390.82 711.797 389.065 707.351 387.576L682.666 378.82C671.04 374.498 658.633 370.473 647.576 364.879L647.16 364.664L646.657 364.149C645.694 363.203 645.05 362.84 643.75 362.5L644.058 362.246C650.756 363.587 657.217 368.021 663.8 369.944C664.446 370.133 664.982 370.413 665.586 370.701C666.867 371.312 667.664 371.293 669.064 371.213C659.385 366.507 648.783 363.118 638.887 358.79C614.057 347.929 590.18 335.679 566.5 322.518C558.254 317.935 549.526 313.706 541.749 308.382L524.046 297.509C519.801 294.842 514.495 292.023 510.965 288.477C511.912 281.491 509.928 273.752 511.396 266.869Z"
     id="path9" />
  <path
     fill="#010101"
     d="M647.16 364.664L646.657 364.149C645.694 363.203 645.05 362.84 643.75 362.5L644.058 362.246C650.756 363.587 657.217 368.021 663.8 369.944C664.446 370.133 664.982 370.413 665.586 370.701C666.867 371.312 667.664 371.293 669.064 371.213L723.12 390.251L723.478 588.661L722.246 588.508C722.004 588.255 721.659 588.071 721.521 587.75C721.097 586.763 721.432 583.721 721.415 582.439L721.487 560.752L721.483 491.388C721.46 478.53 722.053 465.219 721.075 452.419L720.945 391.811C716.366 390.82 711.797 389.065 707.351 387.576L682.666 378.82C671.04 374.498 658.633 370.473 647.576 364.879L647.16 364.664Z"
     id="path10" />
  <path
     fill="#7CCDF4"
     d="M318.825 714.544L329.449 713.031C357.41 752.629 393.289 786.569 431.646 815.905C456.668 835.041 482.535 852.354 511.495 865.023L511.548 880.647L511.713 881.202L511.497 917.99L510.661 917.817C507.483 916.753 504.054 914.496 501.11 912.88L474.906 897.184C403.172 851.907 338.525 790.231 292.083 719.089L318.825 714.544Z"
     id="path11" />
  <path
     fill="#BCE3FA"
     d="M318.825 714.544L329.449 713.031C357.41 752.629 393.289 786.569 431.646 815.905C456.668 835.041 482.535 852.354 511.495 865.023L511.548 880.647C498.652 874.847 486.338 866.992 474.398 859.462C453.631 846.364 433.017 832.214 414.047 816.591C392.173 798.578 371.788 778.195 352.825 757.176L327.89 726.902C324.836 722.822 321.579 718.832 318.825 714.544Z"
     id="path12" />
  <path
     fill="#7CCDF4"
     d="M274.364 593.324L246.883 598.806L217.513 498C204.404 443.615 196.776 388.218 192.326 332.5L188.575 265.805L188.308 234.969C188.319 232.256 187.731 227.354 188.695 224.995C200.853 215.128 214.014 206.617 227.287 198.355C294.74 156.369 372.075 128.69 450.86 118.521C470.888 115.935 491.544 114.124 511.757 114.58L511.787 144.176L513.489 144.602C512.67 144.928 512.329 144.946 511.755 145.643L510.91 145.291L510.233 144.551C457.771 145.314 406.851 154.491 356.988 170.636C337.316 177.006 318.347 183.958 299.5 192.534C270.822 205.585 243.58 221.412 217.204 238.598L218.703 296.75C223.343 384.39 237.815 470.968 262.063 555.305L271.278 585.16C272.066 587.522 272.827 591.494 274.364 593.324Z"
     id="path13" />
  <path
     fill="#7E0000"
     d="M480.431 699.431L542.012 699.511L597.199 702.535L636.716 705.866L657.601 707.89L684.309 711.309L693.179 712.532L705.935 714.694C704.822 716.952 702.882 718.98 701.315 720.955C697.709 725.502 693.778 730.053 690.607 734.907L690.243 734.878C685.935 733.677 681.376 733.276 676.931 732.882C638.095 777.84 592.933 818.067 541.938 848.795C532.306 854.599 522.059 861.108 511.495 865.023C482.535 852.354 456.668 835.041 431.646 815.905C393.289 786.569 357.41 752.629 329.449 713.031L339.106 711.815L367.294 707.958L428.492 701.994L480.431 699.431Z"
     id="path14" />
  <path
     fill="#EBEBEB"
     d="M657.537 729.414C660.321 729.657 665.275 729.744 667.406 731.568L657.675 742.967C657.164 738.595 657.538 733.832 657.537 729.414Z"
     id="path15" />
  <path
     fill="#EBEBEB"
     d="M353.56 730.775L367.504 728.98L367.502 746.873L353.56 730.775Z"
     id="path16" />
  <path
     fill="#636971"
     d="M693.179 712.532L705.935 714.694C704.822 716.952 702.882 718.98 701.315 720.955C697.709 725.502 693.778 730.053 690.607 734.907L690.243 734.878C685.935 733.677 681.376 733.276 676.931 732.882C682.522 726.446 688.734 719.809 693.179 712.532Z"
     id="path17" />
  <path
     fill="#C5C6C6"
     d="M657.601 707.89L684.309 711.309L667.406 731.568C665.275 729.744 660.321 729.657 657.537 729.414L657.468 728.934L657.601 707.89Z"
     id="path18" />
  <path
     fill="#C5C6C6"
     d="M339.106 711.815L367.294 707.958L367.504 728.98L353.56 730.775L339.106 711.815Z"
     id="path19" />
  <path
     fill="#AA261F"
     d="M597.199 702.535L636.716 705.866L657.601 707.89L657.468 728.934L657.537 729.414C657.538 733.832 657.164 738.595 657.675 742.967L616.56 783.33C610.481 788.866 604.207 795.009 597.4 799.631L596.981 756.963L597.274 755.203C596.786 752.565 597.094 749.352 597.089 746.643L597.099 730.755C597.471 727.911 597.283 724.797 597.31 721.916L597.199 702.535Z"
     id="path20" />
  <path
     fill="#7E0000"
     d="M636.716 705.866L657.601 707.89L657.468 728.934C646.428 726.925 635.162 724.528 623.947 723.957L623.573 722.75L636.716 705.866Z"
     id="path21" />
  <path
     fill="#AA261F"
     d="M367.294 707.958L428.492 701.994L428.508 722.081L428.447 803.283C406.071 787.262 386.046 767.111 367.502 746.873L367.504 728.98L367.294 707.958Z"
     id="path22" />
  <path
     fill="#EBEBEB"
     d="M428.492 701.994L480.431 699.431L480.475 718.499L480.414 764.534L480.488 838.897L479.709 839.26C473.92 836.121 468.362 832.28 462.872 828.651C450.893 820.732 439.571 812.36 428.447 803.283L428.508 722.081L428.492 701.994Z"
     id="path23" />
  <path
     fill="#C5C6C6"
     d="M428.492 701.994L480.431 699.431L480.475 718.499L480.414 764.534C479.769 759.548 480.145 754.085 480.104 749.046L480.034 718.014L428.508 722.081L428.492 701.994Z"
     id="path24" />
  <path
     fill="#EBEBEB"
     d="M542.012 699.511L597.199 702.535L597.31 721.916C597.283 724.797 597.471 727.911 597.099 730.755L597.089 746.643C597.094 749.352 596.786 752.565 597.274 755.203L596.981 756.963L597.4 799.631C591.913 803.236 586.903 807.789 581.658 811.764C569.028 821.338 555.955 830.915 542.145 838.74C542.613 835.463 542.156 831.407 542.142 828.03L542.043 804.067L542.086 798.748L542.075 718.361L541.991 718.13L542.012 699.511Z"
     id="path25" />
  <path
     fill="#C5C6C6"
     d="M542.012 699.511L597.199 702.535L597.31 721.916C597.283 724.797 597.471 727.911 597.099 730.755C596.708 727.814 596.928 724.557 596.912 721.576C584.21 719.897 571.282 719.525 558.5 718.786C553.636 718.505 546.692 717.086 542.075 718.361L541.991 718.13L542.012 699.511Z"
     id="path26" />
  <path
     fill="#C5C6C6"
     d="M596.981 756.963L597.4 799.631C591.913 803.236 586.903 807.789 581.658 811.764C569.028 821.338 555.955 830.915 542.145 838.74C542.613 835.463 542.156 831.407 542.142 828.03L542.043 804.067L542.086 798.748C542.164 800.207 542.032 801.941 542.75 803.245C554.895 796.209 567.368 785.962 577.462 776.21L590.223 763.176C592.289 761.05 594.372 758.356 596.981 756.963Z"
     id="path27" />
  <path
     fill="#AA261F"
     d="M480.431 699.431L542.012 699.511L541.991 718.13L542.075 718.361L542.086 798.748L542.043 804.067L542.142 828.03C542.156 831.407 542.613 835.463 542.145 838.74L511.882 856.49L491.886 846.385C487.751 844.194 483.396 842.158 479.709 839.26L480.488 838.897L480.414 764.534L480.475 718.499L480.431 699.431Z"
     id="path28" />
  <path
     fill="#537D90"
     d="M511.757 114.58C541.101 115.507 570.56 117.992 599.5 123.037C684.72 137.893 765.856 173.783 835.98 224.115C835.058 237.997 835.592 252.082 835.43 266L833.25 316.054C828.874 385.697 818.742 455.347 800.413 522.766L775.804 599.045L752.845 594.016L750.093 593.544L748.651 593.196L748.446 555.586L748.078 448.85L748.113 411.599L748.092 396.603C748.067 392.117 748.213 388.147 746.744 383.843C744.793 378.125 741.44 375.086 736.122 372.535L723.868 368.742L733.631 353.104L741.025 328.59L720.963 314.476L745.418 314.312L738.265 297.589C736.661 293.583 734.748 286.676 731.817 283.585C730.847 282.562 730.534 281.927 730.095 280.591L723.824 275.793L710.458 286.521L715.658 271.289L700.56 260.009L717.911 260.099L720.05 253.37C715.856 249.945 712.106 245.644 708.118 241.944C703.522 237.681 698.326 233.87 693.236 230.211C689.034 227.19 684.774 224.236 679.739 222.841L666.464 214.825C661.757 217.208 657.36 220.699 653.038 223.732L656.969 208.563L649.699 202.888C648.785 202.88 647.842 202.941 646.972 202.603C642.818 200.993 638.58 197.975 634.597 195.869L612.5 185.539C586.135 174.615 557.525 166.395 529.591 160.715C525.844 159.954 520.38 158.016 516.665 158.965L516.185 157.495L511.755 145.643C512.329 144.946 512.67 144.928 513.489 144.602L511.787 144.176L511.757 114.58Z"
     id="path29" />
  <path
     fill="#EBEBEB"
     d="M513.489 144.602C600.82 144.57 685.191 166.81 761.531 209.045C777.849 218.072 794.86 227.553 809.434 239.244L808.267 322.75C804.229 404.818 788.749 486.313 763.443 564.437L752.845 594.016L750.093 593.544C749.76 593.113 749.29 592.758 749.093 592.25C748.806 591.507 749.095 588.919 749.096 587.969L749.102 575.273C753.528 567.74 755.792 558.496 758.194 550.124L768.622 509.43L782.072 449.251C791.446 400.115 796.949 349.351 798.393 299.332C798.531 294.557 799.159 246.345 798.458 244.802C798.42 244.72 797.853 244.096 797.725 243.974C794.6 240.993 789.794 238.615 786.111 236.348L755.296 218.389C694.924 186.132 629.067 164.346 560.598 158.75C545.765 157.538 531.053 157.478 516.185 157.495L511.755 145.643C512.329 144.946 512.67 144.928 513.489 144.602Z"
     id="path30" />
  <defs
     id="defs31">
    <linearGradient
       id="gradient_1"
       gradientUnits="userSpaceOnUse"
       x1="811.8465"
       y1="336.62952"
       x2="559.48712"
       y2="377.51874">
      <stop
         offset="0"
         stop-color="#A49484"
         id="stop30" />
      <stop
         offset="1"
         stop-color="#B9B3A2"
         id="stop31" />
    </linearGradient>
  </defs>
  <path
     fill="url(#gradient_1)"
     d="M516.185 157.495C531.053 157.478 545.765 157.538 560.598 158.75C629.067 164.346 694.924 186.132 755.296 218.389L786.111 236.348C789.794 238.615 794.6 240.993 797.725 243.974C797.853 244.096 798.42 244.72 798.458 244.802C799.159 246.345 798.531 294.557 798.393 299.332C796.949 349.351 791.446 400.115 782.072 449.251L768.622 509.43L758.194 550.124C755.792 558.496 753.528 567.74 749.102 575.273L749.096 587.969C749.095 588.919 748.806 591.507 749.093 592.25C749.29 592.758 749.76 593.113 750.093 593.544L748.651 593.196L748.446 555.586L748.078 448.85L748.113 411.599L748.092 396.603C748.067 392.117 748.213 388.147 746.744 383.843C744.793 378.125 741.44 375.086 736.122 372.535L723.868 368.742L733.631 353.104L741.025 328.59L720.963 314.476L745.418 314.312L738.265 297.589C736.661 293.583 734.748 286.676 731.817 283.585C730.847 282.562 730.534 281.927 730.095 280.591L723.824 275.793L710.458 286.521L715.658 271.289L700.56 260.009L717.911 260.099L720.05 253.37C715.856 249.945 712.106 245.644 708.118 241.944C703.522 237.681 698.326 233.87 693.236 230.211C689.034 227.19 684.774 224.236 679.739 222.841L666.464 214.825C661.757 217.208 657.36 220.699 653.038 223.732L656.969 208.563L649.699 202.888C648.785 202.88 647.842 202.941 646.972 202.603C642.818 200.993 638.58 197.975 634.597 195.869L612.5 185.539C586.135 174.615 557.525 166.395 529.591 160.715C525.844 159.954 520.38 158.016 516.665 158.965L516.185 157.495Z"
     id="path31" />
  <path
     fill="#00A9E2"
     d="M720.05 253.37L723.264 243.315L728.786 260.398L746.64 260.137C744.189 261.747 732.496 268.663 731.643 270.404L737.67 285.755C735.249 283.917 732.858 281.891 730.095 280.591L723.824 275.793L710.458 286.521L715.658 271.289L700.56 260.009L717.911 260.099L720.05 253.37Z"
     id="path32" />
  <path
     fill="#00A9E2"
     d="M649.699 202.888L643.699 197.511L659.997 197.845L665.806 181.88L669.785 191.807C670.543 193.73 671.372 196.331 672.767 197.844L688.348 198.085L675.028 207.977L678.344 217.793C678.885 219.417 679.678 221.132 679.739 222.841L666.464 214.825C661.757 217.208 657.36 220.699 653.038 223.732L656.969 208.563L649.699 202.888Z"
     id="path33" />
  <path
     fill="#00A9E2"
     d="M745.418 314.312L745.891 313.751C747.068 312.243 747.473 309.939 748.154 308.14C750.347 302.348 752.806 296.474 754.239 290.441L763.153 314.86L787.345 315.058L768.054 329.762L774.48 347.5C775.002 348.999 776.448 351.738 776.409 353.244L762.391 343.994C760.244 342.566 757.363 340.102 754.935 339.32L741.316 349.033C739.078 350.581 736.641 352.621 734.139 353.661L733.631 353.104L741.025 328.59L720.963 314.476L745.418 314.312Z"
     id="path34" />
  <path
     fill="#16689D"
     d="M504.711 576.234L543.946 576.827C619.303 578.322 695.38 585.564 769 602.025L837.922 620.336L837.933 736.77L769.25 721.705L712.017 710.895C647.031 700.485 580.669 694.734 514.875 693.85C430.663 694.078 346.089 702.994 263.5 719.339C236.485 724.685 208.838 729.971 182.544 738.217L182.464 620.182L199.641 615.689L262.8 600.702C311.27 591.03 360.234 583.984 409.533 580.297L504.711 576.234Z"
     id="path35" />
  <path
     fill="#2C4268"
     d="M369.549 665.068C370.68 665.648 371.164 665.682 371.617 666.933C372.42 669.154 372.602 672.292 372.623 674.643L369.604 674.346L369.549 665.068Z"
     id="path36" />
  <path
     fill="#2C4268"
     d="M367.398 638.111L369.998 638.608C371.21 640.578 371.149 647.087 370.932 649.538C370.432 648.14 370.463 646.074 370.3 644.578C369.183 644.968 368.316 645.522 367.314 646.134L367.398 638.111Z"
     id="path37" />
  <path
     fill="#2C4268"
     d="M512.583 666.568L511.936 673.25L511 673.42L510.069 672.75C509.852 669.72 508.773 665.033 509.958 662.25C510.514 660.945 510.944 660.332 512.25 659.812L512.603 664.206L512.583 666.568Z"
     id="path38" />
  <path
     fill="#001837"
     d="M637.484 619.054C640.158 617.742 646.232 619.072 649.239 619.399L648.871 625.442C645.687 626.065 640.937 625.106 637.63 624.926L637.484 619.054Z"
     id="path39" />
  <path
     fill="#001837"
     d="M557.077 628.777C557.793 626.065 557.706 623.313 557.543 620.534C559.419 623.765 558.813 633.4 557.879 636.984C556.996 640.374 554.658 645.664 551.5 647.434L549.305 648.453C548.753 646.936 547.842 645.124 548.067 643.51L550.834 641.648C555.238 638.42 556.331 633.861 557.077 628.777Z"
     id="path40" />
  <path
     fill="#001837"
     d="M527.371 667.185L527.852 667L528.131 673.506L514.002 673.566C513.902 671.66 514.067 669.191 513.349 667.425L527.371 667.185Z"
     id="path41" />
  <path
     fill="#030F23"
     d="M563.545 668.566L576.019 668.827C576.237 670.284 576.448 671.014 577.288 672.278C576.905 673.525 576.639 674.551 575.75 675.551C572.519 675.531 565.871 676.342 563.113 675L562.724 671.179C563.575 670.134 563.414 669.859 563.545 668.566Z"
     id="path42" />
  <path
     fill="#001837"
     d="M669.408 677.063L669.116 682.76L653.835 681.384C653.175 680.358 653.677 677.087 653.718 675.75L654.709 675.352L669.408 677.063Z"
     id="path43" />
  <path
     fill="#030F23"
     d="M621.536 666.175L621.131 622.772L610.86 622.284L611.25 615.807L611.99 615.489C615.18 617.312 618.539 616.26 621.918 617.144L621.984 651.553C621.987 656.242 622.443 661.578 621.536 666.175Z"
     id="path44" />
  <path
     fill="#001837"
     d="M328.04 680.227C329.445 681.049 330.872 683.113 331.2 684.704L331.25 685.325C329.09 687.198 320.267 687.665 317.15 688.057L312.154 681.908L328.04 680.227Z"
     id="path45" />
  <path
     fill="#001837"
     d="M621.918 617.144C622.687 618.655 622.46 620.382 622.462 622.036L622.471 632.204L622.475 672.441L635.556 673.598C636.162 673.861 636.684 674.166 637.25 674.504L637.177 680.148L621.101 678.764L621.536 666.175C622.443 661.578 621.987 656.242 621.984 651.553L621.918 617.144Z"
     id="path46" />
  <path
     fill="#001837"
     d="M503.377 636.189L504.267 634L504.473 644.844L486.965 645.07C486.935 647.804 487.482 652.577 486.5 655.016L485.33 654.926C484.106 653.328 484.923 641.96 484.947 639.336L498.932 639.067C500.519 639.042 502.01 639.355 503.332 638.427L503.377 636.189Z"
     id="path47" />
  <path
     fill="#001837"
     d="M367.314 646.134C368.316 645.522 369.183 644.968 370.3 644.578C370.463 646.074 370.432 648.14 370.932 649.538L370.75 651.492C368.081 652.445 364.742 652.475 361.91 652.845L350.397 654.72C349.939 654.467 348.039 654.707 347.421 654.721L347.426 648.718C353.762 647.624 360.91 646.171 367.314 646.134Z"
     id="path48" />
  <path
     fill="#001837"
     d="M728.476 625.398L728.74 686.307L742.322 688.54C742.538 690.2 742.625 692.902 742.11 694.472L726.576 691.566C725.896 689.747 726.369 686.456 726.384 684.473C726.453 675.22 727.363 666.233 727.997 657.035C728.172 654.49 727.516 651.862 727.453 649.294L727.063 626.75L728.476 625.398Z"
     id="path49" />
  <path
     fill="#001837"
     d="M369.595 619.058C369.898 618.36 370.178 617.736 370.231 616.965L370.25 615.564L371.25 615.759L371.985 625.492L350.517 628.179L350.518 636.225L348.25 636.466L347.506 635.75L347.523 622.167L368.814 619.258L369.595 619.058Z"
     id="path50" />
  <path
     fill="#001837"
     d="M470.383 667.57L494.823 666.914L506.479 666.869L506.56 673.34L480.75 673.614C477.716 673.678 473.605 674.451 470.708 673.863C470.659 672.452 470.969 668.667 470.383 667.57Z"
     id="path51" />
  <path
     fill="#001837"
     d="M335.426 679.053C338.75 678.163 342.539 678.017 345.975 677.534L369.604 674.346L372.623 674.643L372.984 680.274L335.521 685.255C335.448 683.233 335.194 681.058 335.426 679.053Z"
     id="path52" />
  <path
     fill="#030F23"
     d="M746.281 657.601L759.821 691.328L773.027 693.797C773.92 694.756 773.358 698.764 773.322 700.229L756.902 696.685L745.358 664C745.455 661.958 745.291 659.413 746.281 657.601Z"
     id="path53" />
  <path
     fill="#001837"
     d="M412.485 660.365C414.769 663.237 414.613 666.096 414.809 669.643C415.128 671.736 415.84 674.252 415.119 676.282L415.057 676.47L378.632 679.631C378.492 677.921 378.46 676.033 377.794 674.441L377.425 673.617L400.047 671.607C403.914 671.285 408.917 671.569 412.462 670.037L412.485 660.365Z"
     id="path54" />
  <path
     fill="#001837"
     d="M576.019 668.827L578.267 658.122L596.322 658.97C597.123 663.062 598.241 666.999 599.718 670.901L613.149 672.233L613.542 672.574C614.482 673.569 614.015 676.1 613.969 677.5C612.064 678.755 601.195 677.268 598.551 677.087C597.392 673.035 596.243 669.059 594.506 665.209C590.213 663.846 583.599 664.65 578.993 664.788L577.288 672.278C576.448 671.014 576.237 670.284 576.019 668.827Z"
     id="path55" />
  <path
     fill="#001837"
     d="M721.174 674.418L721.537 675.101C722.397 677.056 721.575 680.506 720.824 682.451L720.601 683C719.403 686.071 717.295 687.591 714.435 689.077C706.792 689.051 698.744 687.51 691.25 686.027C687.222 685.229 682.607 684.511 679.678 681.33C673.055 674.134 676.259 663.433 676.706 654.75C676.773 658.512 676.57 662.547 677.425 666.219C678.242 670.466 679.732 674.873 683.459 677.457C687.844 680.496 709.388 683.807 714.744 682.38C716.743 681.847 718.798 679.868 719.75 678.075L721.174 674.418Z"
     id="path56" />
  <path
     fill="#001837"
     d="M557.939 668.201C559.075 667.98 559.281 668.134 560.099 667.25C560.732 661.736 572.715 617.826 575.084 615.804L561.213 667.809C562.22 668.537 562.369 668.436 563.545 668.566C563.414 669.859 563.575 670.134 562.724 671.179C562.055 672.246 562.077 673.272 561.937 674.5C560.699 675.35 545.626 674.436 542.989 674.391L531.75 652.763C530.782 651.653 529.07 652.139 527.75 652.192C527.399 650.347 527.564 648.384 527.579 646.508C529.626 646.12 531.432 646.133 533.509 646.23L540.309 662.078C541.103 663.794 541.837 666.146 543.109 667.49L557.939 668.201Z"
     id="path57" />
  <path
     fill="#001837"
     d="M272.546 660.536L273.523 658.161C274.538 658.234 274.596 658.029 275.343 658.844C276.786 660.419 276.823 664.141 277.113 666.255L260.07 669.702L260.136 697.288L243.834 700.746C242.929 698.873 242.069 697.01 240.924 695.268L255.076 692.344L255.231 664.594L272.546 660.536Z"
     id="path58" />
  <path
     fill="#001837"
     d="M461.864 615.847C463.08 616.847 464.17 617.861 464.418 619.5C465.014 623.432 464.514 628.038 464.506 632.037C464.487 640.836 465.505 651.587 463.454 660.101C462.779 662.901 460.96 665.871 459.059 668.017C452.776 675.113 444.499 674.777 435.788 675.364L421.45 676.331L420.07 676.336C419.751 675.788 419.529 675.393 419.355 674.778L420.08 670.248C430.977 667.703 449.403 671.514 457.627 662.277C459.652 660.003 460.901 657.133 461.503 654.164C462.486 649.318 462.063 643.875 462.074 638.946L461.864 615.847Z"
     id="path59" />
  <path
     fill="#EBEBEB"
     d="M654.709 675.352L654.943 674.381C656.095 669.192 655.023 661.715 654.971 656.25L654.697 608.591C659.51 609.07 664.545 609.399 669.222 610.684L669.408 677.063L654.709 675.352Z"
     id="path60" />
  <path
     fill="#EBEBEB"
     d="M611.99 615.489L612.082 615.048C612.734 611.614 612.458 607.86 612.432 604.369L649.496 607.792C649.465 611.442 649.924 615.854 649.239 619.399C646.232 619.072 640.158 617.742 637.484 619.054C636.529 623.822 637.175 629.659 637.203 634.544L637.276 663.076C637.274 665.086 637.852 672.235 636.679 673.383L635.556 673.598L622.475 672.441L622.471 632.204L622.462 622.036C622.46 620.382 622.687 618.655 621.918 617.144C618.539 616.26 615.18 617.312 611.99 615.489Z"
     id="path61" />
  <path
     fill="#EBEBEB"
     d="M240.924 695.268C240.64 694.929 240.2 694.673 240.072 694.25C239.868 693.583 240.027 691.935 240.012 691.178L239.861 682.881L239.499 628.152L275.562 621.672L275.935 627.023L275.877 627.675L275.958 633.374C276.655 633.694 277.819 633.963 278.085 634.709C278.563 636.05 278.417 637.724 278.44 639.139L277.927 639.297L258.864 643.236L258.685 651.454L272.704 649.28C272.72 652.964 273.004 656.89 272.546 660.536L255.231 664.594L255.076 692.344L240.924 695.268Z"
     id="path62" />
  <path
     fill="#001837"
     d="M275.958 633.374C276.655 633.694 277.819 633.963 278.085 634.709C278.563 636.05 278.417 637.724 278.44 639.139L277.927 639.297L258.864 643.236L258.685 651.454L255.75 651.821C255.044 650.589 255.279 649.162 255.284 647.788L255.349 637.575L275.135 633.636L275.958 633.374Z"
     id="path63" />
  <path
     fill="#EBEBEB"
     d="M335.426 679.053L333.761 678.944C332.404 676.838 332.768 617.896 332.775 611.621L369.525 607.37L369.595 619.058L368.814 619.258L347.523 622.167L347.506 635.75L348.25 636.466L350.518 636.225C355.938 635.601 361.844 634.34 367.25 634.445C367.433 635.73 367.473 636.814 367.398 638.111L367.314 646.134C360.91 646.171 353.762 647.624 347.426 648.718L347.421 654.721C348.039 654.707 349.939 654.467 350.397 654.72C348.853 656.682 349.505 662.301 349.472 664.971L368.755 662.75C369.601 663.736 369.431 663.838 369.549 665.068L369.604 674.346L345.975 677.534C342.539 678.017 338.75 678.163 335.426 679.053Z"
     id="path64" />
  <path
     fill="#2C4268"
     d="M347.421 654.721C348.039 654.707 349.939 654.467 350.397 654.72C348.853 656.682 349.505 662.301 349.472 664.971L348.245 665.342L347.477 664.75L347.421 654.721Z"
     id="path65" />
  <path
     fill="#EBEBEB"
     d="M470.383 667.57L470.329 667.343C469.545 665.086 469.885 662.076 469.875 659.664L469.805 644.289L469.268 601.476L506.175 600.931C506.186 604.205 505.792 608.224 506.47 611.393L506.662 612.222L507.5 612.75L507.546 618.97L487.038 619.628C486.94 622.245 487.133 625.435 486.48 627.942L503.483 627.396L503.377 636.189L503.332 638.427C502.01 639.355 500.519 639.042 498.932 639.067L484.947 639.336C484.923 641.96 484.106 653.328 485.33 654.926L486.5 655.016L487.093 655.052L505.907 655.082L505.924 666.505C502.361 666.588 498.312 666.31 494.823 666.914L470.383 667.57Z"
     id="path66" />
  <path
     fill="#001837"
     d="M506.662 612.222L507.5 612.75L507.546 618.97L487.038 619.628C486.94 622.245 487.133 625.435 486.48 627.942L485.04 627.918C483.814 626.303 484.553 615.461 484.558 612.875L506.662 612.222Z"
     id="path67" />
  <path
     fill="#EBEBEB"
     d="M575.084 615.804L575.447 614.949L579.187 602.638C583.068 602.103 589.965 602.426 593.743 603.438C599.939 620.762 604.739 638.743 609.529 656.5C610.528 660.205 614.081 669.007 613.149 672.233L599.718 670.901C598.241 666.999 597.123 663.062 596.322 658.97L578.267 658.122L576.019 668.827L563.545 668.566C562.369 668.436 562.22 668.537 561.213 667.809L575.084 615.804Z"
     id="path68" />
  <path
     fill="#001837"
     d="M582.561 646.545L581.163 646.377C580.738 644.035 581.935 640.495 582.445 638.108C583.727 632.107 584.826 625.927 586.489 620.027L590.728 637.911C591.359 640.495 592.5 643.763 592.423 646.418C590.227 647.517 585.094 646.698 582.561 646.545Z"
     id="path69" />
  <path
     fill="#16689D"
     d="M582.561 646.545L582.724 646.08L586.354 631.821L589.468 642.563C589.843 643.812 590.067 645.389 591.084 646.273L592.423 646.418C590.227 647.517 585.094 646.698 582.561 646.545Z"
     id="path70" />
  <path
     fill="#EBEBEB"
     d="M377.425 673.617L376.722 673.461C376.487 673.224 376.152 673.055 376.017 672.75C375.856 672.388 376.012 670.427 376.01 669.923L375.958 661.791L375.515 606.621L401.577 604.586C404.565 604.358 408.653 603.483 411.479 604.25L411.903 608.717C411.892 610.859 411.726 613.027 412.329 615.1L413.02 615.041C413.836 616.391 414.495 619.893 414.259 621.491L414.098 621.944L394.469 623.115L394.368 632.535C399.019 632.045 404.829 631.052 409.47 631.627C409.932 632.597 409.995 633.295 410.037 634.363C410.516 634.826 411.112 635.191 411.474 635.75C411.694 636.09 411.72 638.147 411.766 638.617L412.303 648.374L394.964 650.105C394.902 652.142 395.288 658.802 394.001 659.963L393.418 660.391C397.735 660.387 402.298 659.707 406.614 659.33C408.499 659.166 410.665 658.666 412.434 659.475L412.485 660.365L412.462 670.037C408.917 671.569 403.914 671.285 400.047 671.607L377.425 673.617Z"
     id="path71" />
  <path
     fill="#001837"
     d="M412.329 615.1L413.02 615.041C413.836 616.391 414.495 619.893 414.259 621.491L414.098 621.944L394.469 623.115L394.368 632.535C392.929 632.578 391.659 633.01 390.577 632L390.516 617.548L405.819 616.434C408.163 616.247 410.369 616.451 412.329 615.1Z"
     id="path72" />
  <path
     fill="#001837"
     d="M410.037 634.363C410.516 634.826 411.112 635.191 411.474 635.75C411.694 636.09 411.72 638.147 411.766 638.617L412.303 648.374L394.964 650.105C394.902 652.142 395.288 658.802 394.001 659.963L393.418 660.391L391.757 660.432C390.369 658.982 391.098 646.615 391.096 643.83L409.95 641.921L410.037 634.363Z"
     id="path73" />
  <path
     fill="#EBEBEB"
     d="M728.476 625.398L728.665 619.149C733.01 619.851 738.375 620.045 742.509 621.432C744.707 624.701 746.139 628.592 747.639 632.22L755.672 653.08C756.826 656.084 757.924 659.929 759.778 662.559L759.59 625.756L770.292 627.695C771.311 627.879 772.837 627.903 773.631 628.566L773.589 676.716L773.543 688.382C773.525 690.113 773.709 692.206 773.027 693.797L759.821 691.328L746.281 657.601C745.291 659.413 745.455 661.958 745.358 664L742.966 664.228L742.579 682.261C742.519 683.932 741.867 687.076 742.322 688.54L728.74 686.307L728.476 625.398Z"
     id="path74" />
  <path
     fill="#001837"
     d="M742.966 664.228L742.931 649.217L746.281 657.601C745.291 659.413 745.455 661.958 745.358 664L742.966 664.228Z"
     id="path75" />
  <path
     fill="#EBEBEB"
     d="M512.603 664.206C513.416 657.156 512.784 649.473 512.742 642.362L512.614 600.82L528.896 600.935C536.562 601.016 544.967 600.497 550.924 606.25C557.287 612.393 557.077 620.672 557.077 628.777C556.331 633.861 555.238 638.42 550.834 641.648L548.067 643.51C547.842 645.124 548.753 646.936 549.305 648.453L557.939 668.201L543.109 667.49C541.837 666.146 541.103 663.794 540.309 662.078L533.509 646.23C531.432 646.133 529.626 646.12 527.579 646.508C526.717 648.328 527.039 650.626 527.047 652.618C527.062 656.997 526.392 662.997 527.371 667.185L513.349 667.425L512.583 666.568L512.603 664.206Z"
     id="path76" />
  <path
     fill="#16689D"
     d="M527.971 613.487C530.535 612.769 535.597 613.121 537.963 614.32C539.578 615.138 540.998 616.412 541.396 618.25L541.745 621.624C541.958 622.824 542.021 623.973 542.023 625.19C542.027 628.034 541.729 630.902 539.423 632.907C537.089 634.938 530.587 634.117 527.492 634.083L527.488 620.771C527.494 618.408 527.214 615.735 527.971 613.487Z"
     id="path77" />
  <path
     fill="#030F23"
     d="M527.971 613.487C530.535 612.769 535.597 613.121 537.963 614.32C539.578 615.138 540.998 616.412 541.396 618.25L541.745 621.624L541.434 621.85L540.75 622.452C536.997 619.407 533.126 619.549 528.5 619.062C527.549 617.628 527.967 615.222 527.971 613.487Z"
     id="path78" />
  <path
     fill="#EBEBEB"
     d="M417.583 603.444L418.054 603.452L438.855 602.854C445.295 602.827 453.003 602.87 457.956 607.679C460.236 609.892 461.136 612.848 461.864 615.847L462.074 638.946C462.063 643.875 462.486 649.318 461.503 654.164C460.901 657.133 459.652 660.003 457.627 662.277C449.403 671.514 430.977 667.703 420.08 670.248C418.914 670.323 418.74 670.476 417.663 669.909L417.583 603.444Z"
     id="path79" />
  <path
     fill="#001837"
     d="M433.624 656.928L433.269 614.493C436.541 614.011 442.086 613.284 444.816 615.4C446.72 616.875 446.507 618.961 446.75 621.145L446 621.946C445.373 621.873 444.82 621.777 444.22 621.576C441.793 620.759 439.324 620.914 436.797 620.946L436.468 648.968C436.46 650.515 436.956 654.975 436.431 656.25C436.306 656.552 435.977 656.72 435.75 656.955L433.624 656.928Z"
     id="path80" />
  <path
     fill="#16689D"
     d="M446.75 621.145C447.257 625.523 447.692 652.179 445.754 654.552C443.826 656.913 440.375 657.348 437.5 657.447C436.153 657.493 434.763 657.67 433.624 656.928L435.75 656.955C435.977 656.72 436.306 656.552 436.431 656.25C436.956 654.975 436.46 650.515 436.468 648.968L436.797 620.946C439.324 620.914 441.793 620.759 444.22 621.576C444.82 621.777 445.373 621.873 446 621.946L446.75 621.145Z"
     id="path81" />
  <path
     fill="#EBEBEB"
     d="M677.425 666.219L677.219 611.367L699.383 614.704C704 615.44 709.54 616.075 713.705 618.274C715.751 619.354 717.456 621.097 718.811 622.95C720.263 624.936 721.184 627.073 721.511 629.5L721.633 630.376C722.379 636.033 721.979 642.119 721.977 647.824C721.976 656.539 722.375 665.776 721.174 674.418L719.75 678.075C718.798 679.868 716.743 681.847 714.744 682.38C709.388 683.807 687.844 680.496 683.459 677.457C679.732 674.873 678.242 670.466 677.425 666.219Z"
     id="path82" />
  <path
     fill="#010101"
     d="M706.082 634.547L707.57 633.507C707.568 638.714 708.546 665.307 706.653 668.257L705.598 669.009L706.082 634.547Z"
     id="path83" />
  <path
     fill="#001837"
     d="M691.525 630.545L691.69 625.655C693.809 624.711 701.037 626.3 703.367 627.136C704.932 627.697 706.577 628.797 707.162 630.427C707.512 631.402 707.572 632.482 707.57 633.507L706.082 634.547L705.825 633.658C704.719 631.535 694.204 631.915 691.525 630.545Z"
     id="path84" />
  <path
     fill="#2C4268"
     d="M691.525 630.545C694.204 631.915 704.719 631.535 705.825 633.658L706.082 634.547L705.598 669.009C705.065 669.24 704.593 669.454 704 669.475C700.805 669.586 694.377 668.725 691.898 666.75C690.871 663.821 691.486 659.015 691.486 655.801L691.525 630.545Z"
     id="path85"
     style="fill:#16689d;fill-opacity:1" />
  <path
     fill="#EBEBEB"
     d="M280.693 627.101L280.774 619.961L300.322 617.008C305.923 616.098 313.711 613.939 319.15 615.762C321.434 616.528 322.855 617.921 323.952 620.014C325.88 621.595 327.035 622.206 327.26 624.796C327.829 631.337 327.469 638.23 327.493 644.806C327.505 647.887 328.078 652.794 327.11 655.653C326.232 658.246 324.149 660.851 322.566 663.08C321.328 664.824 321.41 666.942 321.309 669.003C323.221 672.755 325.136 677.14 328.04 680.227L312.154 681.908C309.373 678.524 307.466 674.613 305.177 670.904L304.473 671.081L300.07 667.732L300.086 690.668L284.645 693.893C284.065 691.876 283.617 689.591 282.586 687.76L281.62 687.25C280.066 682.389 280.913 675.394 280.886 670.269L280.721 639.444L278.96 638.987L278.44 639.139C278.417 637.724 278.563 636.05 278.085 634.709C277.819 633.963 276.655 633.694 275.958 633.374L275.877 627.675L275.935 627.023C277.554 626.276 278.948 626.867 280.693 627.101Z"
     id="path86" />
  <path
     fill="#2C4268"
     d="M275.935 627.023C277.554 626.276 278.948 626.867 280.693 627.101L280.721 639.444L278.96 638.987L278.44 639.139C278.417 637.724 278.563 636.05 278.085 634.709C277.819 633.963 276.655 633.694 275.958 633.374L275.877 627.675L275.935 627.023Z"
     id="path87" />
  <path
     fill="#001837"
     d="M323.952 620.014C325.88 621.595 327.035 622.206 327.26 624.796C327.829 631.337 327.469 638.23 327.493 644.806C327.505 647.887 328.078 652.794 327.11 655.653C326.232 658.246 324.149 660.851 322.566 663.08C321.328 664.824 321.41 666.942 321.309 669.003L316.347 658.844L318.803 656.536C324.964 650.373 324.091 643.142 324.052 635.213L323.952 620.014Z"
     id="path88" />
  <path
     fill="#001837"
     d="M282.586 687.76L295.548 685.318L295.648 662.178L301.543 661.307L305.177 670.904L304.473 671.081L300.07 667.732L300.086 690.668L284.645 693.893C284.065 691.876 283.617 689.591 282.586 687.76Z"
     id="path89" />
  <path
     fill="#001837"
     d="M299.644 648.676C298.144 648.94 296.886 649.547 295.545 648.75L295.556 630.177C298.103 629.682 306.747 627.604 308.75 628.72C309.581 630.532 309.476 632.272 309.488 634.226C309.167 637.803 309.761 643.312 308 646.25C305.474 647.732 302.48 648.112 299.644 648.676Z"
     id="path90" />
  <path
     fill="#16689D"
     d="M299.644 648.676L299.775 636.781L309.488 634.226C309.167 637.803 309.761 643.312 308 646.25C305.474 647.732 302.48 648.112 299.644 648.676Z"
     id="path91" />
  <path
     fill="#EBEBEB"
     d="M274.364 593.324C272.827 591.494 272.066 587.522 271.278 585.16L262.063 555.305C237.815 470.968 223.343 384.39 218.703 296.75L217.204 238.598C243.58 221.412 270.822 205.585 299.5 192.534C318.347 183.958 337.316 177.006 356.988 170.636C406.851 154.491 457.771 145.314 510.233 144.551L510.91 145.291L511.755 145.643L516.185 157.495L516.665 158.965C520.38 158.016 525.844 159.954 529.591 160.715C557.525 166.395 586.135 174.615 612.5 185.539L634.597 195.869C638.58 197.975 642.818 200.993 646.972 202.603C647.842 202.941 648.785 202.88 649.699 202.888L656.969 208.563L653.038 223.732C657.36 220.699 661.757 217.208 666.464 214.825L679.739 222.841C684.774 224.236 689.034 227.19 693.236 230.211C698.326 233.87 703.522 237.681 708.118 241.944C712.106 245.644 715.856 249.945 720.05 253.37L717.911 260.099L700.56 260.009L715.658 271.289L710.458 286.521L723.824 275.793L730.095 280.591C730.534 281.927 730.847 282.562 731.817 283.585C734.748 286.676 736.661 293.583 738.265 297.589L745.418 314.312L720.963 314.476L741.025 328.59L733.631 353.104L723.868 368.742C695.36 360.03 667.28 350.055 640 337.978C606.372 323.091 573.759 305.276 542.151 286.524L511.396 266.869C509.928 273.752 511.912 281.491 510.965 288.477L455.08 321.543C417.614 342.34 378.218 360.595 338.066 375.571C323.005 381.188 307.203 387.452 291.452 390.667L293.872 589.233L292.919 589.886L291.767 590.24L274.364 593.324Z"
     id="path92" />
  <path
     fill="#00A9E2"
     d="M351.215 186.134C353.533 190.199 354.867 194.849 356.688 199.163L371.988 199.005L359.699 208.719L364.61 222.957C360.258 220.434 356.268 217.235 352.41 214.024C347.9 216.558 343.645 220.156 339.523 223.302L344.612 208.797L332.013 199.028L347.155 198.931L351.215 186.134Z"
     id="path93" />
  <path
     fill="#00A9E2"
     d="M300.366 240.463L306.864 257.07L322.646 256.998C318.779 260.567 313.897 263.354 309.516 266.257L315.066 283.648C313.216 282.977 311.531 281.45 309.915 280.325L301.923 274.952C301.377 274.58 300.845 274.326 300.25 274.043C295.865 276.082 291.282 280.035 287.268 282.843L291.8 267.166L279.193 257.574L293.969 257.116C297.144 253.569 298.938 245.075 300.366 240.463Z"
     id="path94" />
  <path
     fill="#00A9E2"
     d="M269.073 292.75C270.41 294.29 271.059 297.253 271.712 299.23C273.306 304.052 275.135 308.921 276.333 313.85L300.518 313.353L281.423 327.071C281.622 329.615 282.834 332.511 283.566 334.977L287.689 349.214L269.167 336.392L251.037 349.358C252.324 342.341 255.801 334.72 257.955 327.841C256.406 325.979 253.872 324.455 251.919 322.999L238.792 313.66L261.641 313.967L269.073 292.75Z"
     id="path95" />
  <path
     fill="#00A9E2"
     d="M389.453 227.671L400.833 260.311L435.053 260.017L407.471 279.736L417.821 312.161C409.553 305.163 399.334 299.454 390.319 293.344L363.353 312.297L373.026 279.572L345.207 260.116C356.07 261.239 367.701 260.299 378.654 260.293C382.19 249.536 387.334 238.769 389.453 227.671Z"
     id="path96" />
  <path
     fill="#00A9E2"
     d="M634.2 230.75C635.813 231.503 642.533 256.199 645.147 259.753L677.645 259.877L651.804 280.849C652.133 284.217 653.71 288.232 654.649 291.531L660.82 312.784L634.321 294.012L634.227 293.927C634.225 293.926 633.264 293.501 633.25 293.502C632.435 293.577 629.208 296.089 628.464 296.598L612.827 307.17C610.861 308.504 608.253 310.785 606.058 311.513L615.127 279.906L589.267 259.932L622.894 259.905L634.2 230.75Z"
     id="path97" />
  <path
     fill="#00A9E2"
     d="M510.91 145.291L511.755 145.643L516.185 157.495L516.665 158.965L525.2 182.836L571.606 182.424L534.913 210.524L547.796 254.962C545.064 253.596 542.502 251.048 540.025 249.221L521.81 236.245C518.694 234.042 515.406 231.242 512.041 229.496L511.11 229.202L474.552 254.897L486.977 210.212L451.266 182.996L496.744 183.031C497.612 182.814 497.597 182.097 497.866 181.362L510.91 145.291Z"
     id="path98" />
  <path
     fill="#F18E4E"
     d="M511.408 266.38L511.396 266.869C509.928 273.752 511.912 281.491 510.965 288.477L455.08 321.543C417.614 342.34 378.218 360.595 338.066 375.571C323.005 381.188 307.203 387.452 291.452 390.667L293.872 589.233L292.919 589.886C292.473 587.876 291.277 585.843 290.414 583.955L286.255 574.093C282.206 563.477 278.867 552.691 275.834 541.75C274.31 536.256 274.886 530.041 274.825 524.369L274.45 497.679L271.297 378.566C273.31 377.14 276.904 376.565 279.293 375.793L303.503 368.115L336.226 356.426L392.354 332.898C418.483 320.801 444.346 306.993 469.036 292.197L496.439 275.619C501.131 272.693 506.355 268.371 511.408 266.38Z"
     id="path99" />
  <path
     fill="#00A9E2"
     d="M298.952 588.55L296.772 394.568C360.162 377.063 421.338 347.346 477.975 314.213L500.06 301.012C503.27 299.045 508.394 294.624 511.961 294.043L549.5 316.465L619.5 352.5C628.45 356.584 637.843 361.606 647.16 364.664L647.576 364.879C658.633 370.473 671.04 374.498 682.666 378.82L707.351 387.576C711.797 389.065 716.366 390.82 720.945 391.811L721.075 452.419L721.01 588.069L705.32 585.612C700.672 584.547 695.781 584.169 691.056 583.574L666.18 580.538C618.986 575.075 571.079 572.004 523.566 571.414L490.902 571.502L432.328 573.468L321.712 585.199L308.344 587.303C305.231 587.849 302.122 588.501 298.952 588.55Z"
     id="path100" />
  <path
     fill="#16689D"
     d="M565.708 486.891L571.883 499.884C573.206 502.734 574.772 505.593 575.652 508.612L555.621 552.438L505.519 552.483L505.6 570.985C511.514 570.989 517.704 570.617 523.566 571.414L490.902 571.502L490.496 531.018L541.613 531.026L565.708 486.891Z"
     id="path101" />
  <path
     fill="#16689D"
     d="M571.111 396.734C572.38 397.139 573.063 397.404 573.966 398.422C577.068 401.921 579.772 406.225 582.485 410.05L597.409 431.302L616.757 458.458L628.344 474.409L505.979 473.444L505.833 484.738L490.511 484.9L490.498 449.957L593.658 449.966L571.111 396.734Z"
     id="path102" />
  <path
     fill="#7CCDF4"
     d="M308.344 587.303C307.577 585 307.804 582.382 307.784 579.984L307.718 565.056L307.879 506.706L308.205 401.76C308.773 400.788 309.802 400.604 310.825 400.176C315.834 398.08 321.252 396.803 326.383 394.992L350.066 386.033L403.349 363.125L437.742 345.089L478.023 322.729C483.566 319.629 488.927 316.131 494.63 313.34C473.502 331.491 450.065 347.309 426.496 362.094C393.795 382.608 359.57 402.777 321.929 412.541L321.712 585.199L308.344 587.303Z"
     id="path103" />
  <path
     fill="#16689D"
     d="M511.961 294.043L549.5 316.465L619.5 352.5C628.45 356.584 637.843 361.606 647.16 364.664L647.576 364.879C658.633 370.473 671.04 374.498 682.666 378.82L707.351 387.576C711.797 389.065 716.366 390.82 720.945 391.811L721.075 452.419L721.01 588.069L705.32 585.612L705.013 404.803C668.211 392.728 632.269 376.469 598 358.506C568.176 342.874 539.211 326.372 512.534 305.735L511.961 294.043Z"
     id="path104" />
  <path
     fill="#EBEBEB"
     d="M512.606 395.118L569.835 395.181L571.111 396.734L593.658 449.966L490.498 449.957L490.511 484.9L505.833 484.738L548.115 484.784C553.392 484.795 560.867 483.905 565.834 485.143C565.815 485.739 565.801 486.301 565.708 486.891L541.613 531.026L490.496 531.018L490.902 571.502L432.328 573.468L432.361 449.614L432.416 422.961C432.421 421.009 432.965 416.82 432.438 415.171C431.855 413.348 424.087 406.445 422.313 404.478C419.671 401.549 417.241 398.45 414.896 395.281L512.606 395.118Z"
     id="path105" />
</svg>
